<svg width="222" height="158" viewBox="0 0 222 158" fill="none" xmlns="http://www.w3.org/2000/svg">
<g clip-path="url(#clip0)">
<path d="M11 1H177C182.5 1 187 5.5 187 11V123.9C187 129.4 182.5 133.9 177 133.9H11C5.5 133.9 1 129.4 1 123.9V11C1 5.5 5.5 1 11 1Z" fill="white" stroke="#721B65" stroke-width="2"/>
<path d="M62.9 77.1001H121.6C122.2 77.1001 122.6 77.6001 122.6 78.1001C122.6 78.7001 122.1 79.1001 121.6 79.1001H62.9C62.3 79.1001 61.9 78.6001 61.9 78.1001C61.9 77.6001 62.4 77.1001 62.9 77.1001Z" fill="#CFCBCF"/>
<path d="M62.9 49.3999H121.6C122.2 49.3999 122.6 49.8999 122.6 50.3999C122.6 50.9999 122.1 51.3999 121.6 51.3999H62.9C62.3 51.3999 61.9 50.8999 61.9 50.3999C61.9 49.8999 62.4 49.3999 62.9 49.3999Z" fill="#CFCBCF"/>
<path d="M62.9 68.8999H131.6C132.2 68.8999 132.6 69.3999 132.6 69.8999C132.6 70.4999 132.1 70.8999 131.6 70.8999H62.9C62.3 70.8999 61.9 70.3999 61.9 69.8999C61.9 69.3999 62.4 68.8999 62.9 68.8999Z" fill="#CFCBCF"/>
<path d="M63.1 88.3999H131.8C132.4 88.3999 132.8 88.8999 132.8 89.3999C132.8 89.9999 132.3 90.3999 131.8 90.3999H63.1C62.5 90.3999 62.1 89.8999 62.1 89.3999C62.1 88.8999 62.6 88.3999 63.1 88.3999Z" fill="#CFCBCF"/>
<path d="M62.9 59H109.6C110.2 59 110.6 59.5 110.6 60C110.6 60.6 110.1 61 109.6 61H62.9C62.3 61 61.9 60.5 61.9 60C61.9 59.5 62.4 59 62.9 59Z" fill="#CFCBCF"/>
<path d="M32.7 88.4001C44.2 88.4001 53.6 79.0001 53.6 67.5001C53.6 56.0001 44.2 46.6001 32.7 46.6001C21.2 46.6001 11.8 56.0001 11.8 67.5001C11.8 79.1001 21.2 88.4001 32.7 88.4001Z" fill="#DEE3ED"/>
<path d="M34.7 77.3999H30.6V79.7999H34.7V77.3999Z" fill="#F8BB94"/>
<path d="M30.9 79.3C31.4 78.8 32 78.6 32.7 78.5C33.3 78.5 34.3 78.6 34.6 78C34.6 77.9 34.7 77.8 34.8 77.8V77.5H30.7V79.6C30.7 79.4 30.8 79.3 30.9 79.3Z" fill="#F0A778"/>
<path d="M41.1 71.4003C42.1 71.4003 43 70.6003 43 69.6003C43 68.6003 42.1 67.8003 41.1 67.8003C40.1 67.8003 39.2 68.6003 39.2 69.6003C39.2 70.6003 40 71.4003 41.1 71.4003Z" fill="#F8BB94"/>
<path d="M41.3 68.6001C41.3 68.6001 41.3 68.6001 41.4 68.6001C41.5 68.6001 41.6 68.6001 41.7 68.7001C41.8 68.7001 42 68.8001 42.1 69.0001C42.1 69.0001 42.1 69.1001 42.2 69.1001V69.2001V69.3001V69.4001C42.2 69.5001 42.2 69.6001 42.1 69.7001C42.1 69.8001 42 69.9001 42 69.9001C41.9 70.1001 41.8 70.2001 41.7 70.2001C41.6 70.2001 41.6 70.3001 41.5 70.3001C41.4 70.3001 41.4 70.3001 41.4 70.3001C41.3 70.3001 41.3 70.3001 41.3 70.3001C41.3 70.3001 41.3 70.3001 41.4 70.3001C41.4 70.3001 41.5 70.3001 41.5 70.2001L41.6 70.1001L41.7 70.0001C41.7 69.9001 41.8 69.9001 41.8 69.8001C41.8 69.7001 41.9 69.7001 41.9 69.6001C41.9 69.5001 41.9 69.5001 41.9 69.4001V69.3001V69.2001V69.1001V69.0001C41.8 68.9001 41.7 68.8001 41.6 68.7001C41.5 68.7001 41.4 68.7001 41.3 68.6001C41.4 68.6001 41.3 68.6001 41.3 68.6001Z" fill="#DADADA"/>
<path d="M41.2 69.9999C41.4 69.9999 41.5 69.7999 41.5 69.6999C41.5 69.5999 41.4 69.3999 41.2 69.3999C41 69.3999 40.9 69.5999 40.9 69.6999C40.9 69.7999 41.1 69.9999 41.2 69.9999Z" fill="#DADADA"/>
<path d="M24.6 71.4003C25.6 71.4003 26.5 70.6003 26.5 69.6003C26.5 68.6003 25.6 67.8003 24.6 67.8003C23.6 67.8003 22.7 68.6003 22.7 69.6003C22.7 70.6003 23.5 71.4003 24.6 71.4003Z" fill="#F8BB94"/>
<path d="M24.3 68.6001C24.3 68.6001 24.3 68.6001 24.2 68.6001C24.1 68.6001 24 68.6001 23.9 68.7001C23.8 68.7001 23.6 68.8001 23.5 69.0001C23.5 69.0001 23.5 69.1001 23.4 69.1001V69.2001V69.3001V69.4001C23.4 69.5001 23.4 69.6001 23.5 69.7001C23.5 69.8001 23.6 69.9001 23.6 69.9001C23.7 70.1001 23.8 70.2001 23.9 70.2001C24 70.2001 24 70.3001 24.1 70.3001C24.2 70.3001 24.2 70.3001 24.2 70.3001C24.3 70.3001 24.3 70.3001 24.3 70.3001C24.3 70.3001 24.3 70.3001 24.2 70.3001C24.2 70.3001 24.1 70.3001 24.1 70.2001L24 70.1001L23.9 70.0001C23.9 69.9001 23.8 69.9001 23.8 69.8001C23.8 69.7001 23.7 69.7001 23.7 69.6001C23.7 69.5001 23.7 69.5001 23.7 69.4001V69.3001V69.2001V69.1001V69.0001C23.8 68.9001 23.9 68.8001 24 68.7001C24.1 68.7001 24.2 68.7001 24.3 68.6001Z" fill="#DADADA"/>
<path d="M24.4 69.9999C24.6 69.9999 24.7 69.7999 24.7 69.6999C24.7 69.5999 24.6 69.3999 24.4 69.3999C24.2 69.3999 24.1 69.5999 24.1 69.6999C24.1 69.7999 24.2 69.9999 24.4 69.9999Z" fill="#DADADA"/>
<path d="M41.1 67.2C41.1 73.4 38.2 77.8 32.7 77.8C27.2 77.8 24.3 73.5 24.3 67.2C24.3 61 27.3 56 32.8 56C38.3 55.9 41.1 61 41.1 67.2Z" fill="#F8BB94"/>
<path d="M30.7 79.7002C30.7 79.7002 25.5 80.4002 23.6 82.0002C21.7 83.7002 21.1 85.1002 20.4 88.3002H32.5H32.7H44.8C44.1 85.0002 43.6 83.6002 41.6 82.0002C39.7 80.4002 34.5 79.7002 34.5 79.7002H30.7Z" fill="#F8BB94"/>
<path d="M36.7 80.1001C36.7 80.1001 39.9 80.4001 41.8 82.1001C43.7 83.8001 44.3 85.2001 45 88.4001H32.8H32.6H20.5C21.2 85.1001 21.7 83.7001 23.7 82.1001C25.6 80.5001 28.8 80.1001 28.8 80.1001C28.8 80.1001 28.1 84.5001 32.9 84.5001C32.9 84.5001 36.9 84.7001 36.7 80.1001Z" fill="#721B65"/>
<path d="M29.4 80C29.4 80.1 29.4 80.1 29.4 80.2C29.4 80.2 29.2 81.8 30.1 82.9C30.7 83.6 31.6 83.9 32.9 83.9C32.9 83.9 34.2 83.9 35.2 83C35.8 82.4 36.1 81.3 36.1 80L37.4 80.2C37.4 81.8 37 83 36.1 83.9C34.9 85.1 33.3 85.2 32.9 85.2C32.8 85.2 32.8 85.2 32.8 85.2C31.1 85.2 29.9 84.7 29.1 83.8C28 82.5 28 80.9 28.1 80.3L29.4 80Z" fill="#FFD868"/>
<path d="M24.4 68.2002L25.3 69.1002L25.5 62.2002C25.5 62.2002 25.6 58.7002 29.3 58.7002C29.3 58.7002 32.4 60.3002 36.3 59.0002C36.3 59.0002 39.8 58.4002 40.3 62.1002V69.2002L41.2 68.1002V67.2002C41.2 67.2002 41.7 64.2002 41.2 59.7002C41.2 59.7002 40.5 54.8002 36.1 54.0002C36.1 54.0002 28.9 52.1002 25.8 56.7002C25.8 56.7002 23.5 59.4002 24.1 63.7002L24.4 68.2002Z" fill="#732400"/>
<path d="M17.1 124.6H170.8C171.4 124.6 171.8 125.1 171.8 125.6C171.8 126.2 171.3 126.6 170.8 126.6H17.1C16.5 126.6 16.1 126.1 16.1 125.6C16.1 125.1 16.6 124.6 17.1 124.6Z" fill="#CFCBCF"/>
<path d="M155.8 72.6001H153.1V74.0001H155.8V72.6001Z" fill="#CFCBCF"/>
<path d="M158.5 72.6001H159.8V73.9001H162.5V75.3001H158.5V72.6001Z" fill="#CFCBCF"/>
<path d="M163.9 72.6001H165.2V87.4001H163.9V84.7001H162.5V86.1001H161.2V84.7001H159.8V83.4001H158.5V79.3001H157.1V76.6001H153.1V75.3001H155.8V73.9001H157.1V75.3001H158.5V76.6001H162.5V78.0001H159.8V82.0001H161.2V80.7001H162.5V83.4001H163.9V79.3001H162.5V78.0001H163.9V72.6001Z" fill="#CFCBCF"/>
<path d="M142.2 72.6V82H151.7V72.5H142.2V72.6ZM150.3 80.7H143.5V73.9H150.3V80.7Z" fill="#CFCBCF"/>
<path d="M166.6 72.6V82H176.1V72.5H166.6V72.6ZM174.7 80.7H167.9V73.9H174.7V80.7Z" fill="#CFCBCF"/>
<path d="M149 75.2998H144.9V79.3998H149V75.2998Z" fill="#CFCBCF"/>
<path d="M173.4 75.2998H169.3V79.3998H173.4V75.2998Z" fill="#CFCBCF"/>
<path d="M153.1 78H155.8V80.7H154.4V79.3H153.1V78Z" fill="#CFCBCF"/>
<path d="M153.1 80.7002H154.4V82.0002H155.8V80.7002H157.1V83.4002H158.5V84.7002H159.8V86.1002H158.5V87.4002H157.1V84.7002H155.8V83.4002H153.1V80.7002Z" fill="#CFCBCF"/>
<path d="M151.7 83.3999H149V84.7999H151.7V83.3999Z" fill="#CFCBCF"/>
<path d="M170.7 83.3999H169.3V84.7999H170.7V83.3999Z" fill="#CFCBCF"/>
<path d="M172 83.3999H173.3V86.0999H176V90.0999H173.3V87.3999H172V83.3999Z" fill="#CFCBCF"/>
<path d="M176.1 83.3999H174.7V84.7999H176.1V83.3999Z" fill="#CFCBCF"/>
<path d="M146.3 84.7002H143.6V86.1002H146.3V84.7002Z" fill="#CFCBCF"/>
<path d="M149 84.7002H147.6V86.1002H149V84.7002Z" fill="#CFCBCF"/>
<path d="M143.6 86.1001H142.2V87.5001H143.6V86.1001Z" fill="#CFCBCF"/>
<path d="M151.7 86.1001H150.3V87.5001H151.7V86.1001Z" fill="#CFCBCF"/>
<path d="M144.9 87.3999H147.6V90.0999H146.3V91.4999H144.9V90.0999H143.6V88.7999H144.9V87.3999Z" fill="#CFCBCF"/>
<path d="M150.4 87.3999H149V88.7999H150.4V87.3999Z" fill="#CFCBCF"/>
<path d="M163.9 87.3999H162.5V88.7999H163.9V87.3999Z" fill="#CFCBCF"/>
<path d="M151.7 88.7998H150.3V90.1998H151.7V88.7998Z" fill="#CFCBCF"/>
<path d="M143.6 90.1001H142.2V95.5001H143.6V90.1001Z" fill="#CFCBCF"/>
<path d="M149 90.1001H147.6V91.5001H149V90.1001Z" fill="#CFCBCF"/>
<path d="M147.7 91.5H146.3V92.9H147.7V91.5Z" fill="#CFCBCF"/>
<path d="M151.7 91.5H150.3V92.9H151.7V91.5Z" fill="#CFCBCF"/>
<path d="M153.1 91.5H154.4V92.8H155.8V95.5H154.4V96.9H153.1V91.5Z" fill="#CFCBCF"/>
<path d="M170.6 91.5H167.9V92.9H170.6V91.5Z" fill="#CFCBCF"/>
<path d="M176 91.5H173.3V92.9H176V91.5Z" fill="#CFCBCF"/>
<path d="M149 92.7998H147.6V94.1998H149V92.7998Z" fill="#CFCBCF"/>
<path d="M146.3 94.2002H144.9V95.6002H146.3V94.2002Z" fill="#CFCBCF"/>
<path d="M151.7 94.2002H149V95.6002H151.7V94.2002Z" fill="#CFCBCF"/>
<path d="M157.2 95.5H155.8V96.9H157.2V95.5Z" fill="#CFCBCF"/>
<path d="M176 95.5V94.1H173.3V92.7H170.6V94.1H165.2V92.7H166.6V91.3H168V89.9H170.7V91.3H172.1V87.2H170.7V85.8H169.3V87.2H167.9V85.8H169.3V84.4H167.9V83H166.5V87.1H165.1V91.2H162.4V88.5H161V91.2H159.6V87.1H158.2V89.8H156.8V87.1H152.7V88.5H154.1V91.2H155.5V92.6H156.9V91.2H158.3V92.6H156.9V95.3H158.3V96.7H159.7V94H161.1V96.7H162.5V95.3H163.9V96.7H162.5V98.1H161.1V102.2H158.4V103.6H161.1V105H158.4V106.4H165.2V105H163.8V103.6H162.4V99.5H163.8V100.9H165.2V102.3H166.6V101H170.7V102.4H172.1V101H173.5V99.6H172V96.9H170.6V95.5H176ZM163.9 94.2H162.5V92.8H163.9V94.2ZM169.3 99.6H165.2V95.5H169.3V99.6Z" fill="#CFCBCF"/>
<path d="M158.5 96.8999H157.1V99.5999H158.5V96.8999Z" fill="#CFCBCF"/>
<path d="M168 96.8999H166.6V98.2999H168V96.8999Z" fill="#CFCBCF"/>
<path d="M176.1 96.8999H174.7V99.5999H176.1V96.8999Z" fill="#CFCBCF"/>
<path d="M142.2 96.8999V106.4H151.7V96.8999H142.2ZM150.3 105H143.5V98.1999H150.3V105Z" fill="#CFCBCF"/>
<path d="M153.1 98.2998H155.8V101H157.1V102.3H155.8V103.7H154.4V99.5998H153.1V98.2998Z" fill="#CFCBCF"/>
<path d="M149 99.6001H144.9V103.7H149V99.6001Z" fill="#CFCBCF"/>
<path d="M159.9 99.6001H158.5V101H159.9V99.6001Z" fill="#CFCBCF"/>
<path d="M176.1 101H174.7V106.4H176.1V101Z" fill="#CFCBCF"/>
<path d="M165.3 102.3H163.9V103.7H165.3V102.3Z" fill="#CFCBCF"/>
<path d="M166.6 102.3H169.3V103.7H172V106.4H170.6V105H167.9V106.4H166.6V102.3Z" fill="#CFCBCF"/>
<path d="M173.4 102.3H172V103.7H173.4V102.3Z" fill="#CFCBCF"/>
<path d="M158.5 103.7H157.1V105.1H158.5V103.7Z" fill="#CFCBCF"/>
<path d="M155.8 105H154.4V106.4H155.8V105Z" fill="#CFCBCF"/>
<path d="M11.6 1.7998H177.3C182.9 1.7998 187.5 6.3998 187.5 11.9998V34.7998H1.4V11.9998C1.4 6.3998 6 1.7998 11.6 1.7998Z" fill="#721B65"/>
<path d="M124.8 26.8001H63.2C62.3 26.8001 61.6 26.1001 61.6 25.2001C61.6 24.3001 62.3 23.6001 63.2 23.6001H124.8C125.7 23.6001 126.4 24.3001 126.4 25.2001C126.4 26.1001 125.7 26.8001 124.8 26.8001Z" fill="white"/>
<path d="M145.1 17.8001H42.9C42 17.8001 41.3 17.1001 41.3 16.2001C41.3 15.3001 42 14.6001 42.9 14.6001H145.1C146 14.6001 146.7 15.3001 146.7 16.2001C146.7 17.0001 146 17.8001 145.1 17.8001Z" fill="#FFD868"/>
<path d="M165.4 44.5H215.9C218.8 44.5 221.2 46.8 221.2 49.8V152.3C221.2 155.2 218.8 157.6 215.9 157.6H165.4C162.5 157.6 160.1 155.3 160.1 152.3V49.7C160.1 46.8 162.5 44.5 165.4 44.5Z" fill="#721B65"/>
<path d="M164.2 55.1001H217.2V142.2H164.2V55.1001Z" fill="white"/>
<path d="M190.7 153.3C192.8 153.3 194.5 151.6 194.5 149.6C194.5 147.5 192.8 145.9 190.7 145.9C188.6 145.9 186.9 147.6 186.9 149.6C186.9 151.7 188.6 153.3 190.7 153.3Z" fill="white"/>
<path d="M195.4 48.1001H185.9C185.2 48.1001 184.7 48.6001 184.7 49.2001C184.7 49.8001 185.2 50.3001 185.9 50.3001H195.4C196.1 50.3001 196.6 49.8001 196.6 49.2001C196.6 48.6001 196.1 48.1001 195.4 48.1001Z" fill="white"/>
<path d="M206.1 101.5C206.1 109.8 199.3 116.5 191.1 116.5C182.9 116.5 176.1 109.7 176.1 101.5C176.1 93.3 182.9 86.5 191.1 86.5C199.3 86.5 206.1 93.2 206.1 101.5Z" fill="#FFD868"/>
<path d="M196.9 97.3998C197.2 97.6998 197.2 98.2998 196.9 98.5998L190 105.5C189.8 105.7 189.6 105.8 189.4 105.8C189.3 105.8 189 105.7 188.8 105.5L185.2 101.9C184.9 101.6 184.9 101 185.2 100.7C185.5 100.4 186.1 100.4 186.4 100.7L189.4 103.7L195.7 97.3998C196 97.0998 196.6 97.0998 196.9 97.3998Z" fill="white"/>
</g>
<defs>
<clipPath id="clip0">
<rect width="221.2" height="157.5" fill="white"/>
</clipPath>
</defs>
</svg>
