<svg width="202" height="150" viewBox="0 0 202 150" fill="none" xmlns="http://www.w3.org/2000/svg">
<path d="M111.8 145.3H36.1999C32.6999 145.3 29.8999 142.5 29.8999 139V11.0001C29.8999 7.10007 33.3999 4.10007 37.1999 4.80007L106.5 15.3001C109.5 15.8001 111.8 18.4001 111.8 21.5001V145.3Z" fill="white" stroke="#721B65" stroke-width="2"/>
<path d="M165.3 145.3H111.8V60.2998L166.7 71.7998C169.6 72.3998 171.6 74.9998 171.6 77.8998V139C171.6 142.5 168.8 145.3 165.3 145.3Z" fill="#721B65"/>
<path d="M86.6002 143.7H58.2002V116.9C58.2002 113.4 61.0002 110.6 64.5002 110.6H80.2002C83.7002 110.6 86.5002 113.4 86.5002 116.9V143.7H86.6002Z" fill="white" stroke="#721B65" stroke-width="2"/>
<path d="M111.8 150H36.2002C30.1002 150 25.2002 145.1 25.2002 139V10.9999C25.2002 7.79993 26.6002 4.69993 29.1002 2.59993C31.6002 0.499933 34.8002 -0.400066 38.0002 0.0999335L107.2 10.5999C112.6 11.4999 116.5 16.0999 116.5 21.4999V145.3C116.5 147.9 114.4 150 111.8 150ZM36.2002 9.49993C35.7002 9.49993 35.3002 9.69993 35.2002 9.89993C35.0002 9.99993 34.6002 10.3999 34.6002 10.9999V139C34.6002 139.9 35.3002 140.6 36.2002 140.6H107V21.5999C107 20.7999 106.4 20.1999 105.7 19.9999L36.5002 9.49993C36.4002 9.49993 36.3002 9.49993 36.2002 9.49993Z" fill="#721B65"/>
<path d="M165.3 150H111.8C109.2 150 107.1 147.9 107.1 145.3V60.3C107.1 58.9 107.7 57.5 108.8 56.6C109.9 55.7 111.3 55.3 112.7 55.6L167.6 67.1C172.7 68.2 176.3 72.7 176.3 77.9V139C176.3 145.1 171.4 150 165.3 150ZM116.5 140.6H165.3C166.2 140.6 166.9 139.9 166.9 139V77.9C166.9 77.2 166.4 76.5 165.7 76.4L116.6 66.1V140.6H116.5Z" fill="#721B65"/>
<path d="M86.6 148.4H58.2C55.6 148.4 53.5 146.3 53.5 143.7V116.9C53.5 110.8 58.4 105.9 64.5 105.9H80.2C86.3 105.9 91.2 110.8 91.2 116.9V143.7C91.3 146.3 89.2 148.4 86.6 148.4ZM63 139H81.9V117C81.9 116.1 81.2 115.4 80.3 115.4H64.5C63.6 115.4 62.9 116.1 62.9 117V139H63Z" fill="#721B65"/>
<path d="M47.2002 27.1997H66.1002V36.5997H47.2002V27.1997Z" fill="#FFD868"/>
<path d="M78.7002 27.1997H97.6002V36.5997H78.7002V27.1997Z" fill="#FFD868"/>
<path d="M47.2002 46.1001H66.1002V55.5001H47.2002V46.1001Z" fill="#FFD868"/>
<path d="M78.7002 46.1001H97.6002V55.5001H78.7002V46.1001Z" fill="#FFD868"/>
<path d="M47.2002 65H66.1002V74.4H47.2002V65Z" fill="#FFD868"/>
<path d="M78.7002 65H97.6002V74.4H78.7002V65Z" fill="#FFD868"/>
<path d="M47.2002 83.8999H66.1002V93.2999H47.2002V83.8999Z" fill="#FFD868"/>
<path d="M78.7002 83.8999H97.6002V93.2999H78.7002V83.8999Z" fill="#FFD868"/>
<path d="M132.2 83.8999H151.1V93.2999H132.2V83.8999Z" fill="#FFD868"/>
<path d="M132.2 102.8H151.1V112.2H132.2V102.8Z" fill="#FFD868"/>
<path d="M132.2 121.7H151.1V131.1H132.2V121.7Z" fill="#FFD868"/>
<path d="M4.7 140.6H196.8C199.4 140.6 201.5 142.7 201.5 145.3C201.5 147.9 199.4 150 196.8 150H4.7C2.1 150 0 147.9 0 145.3C0 142.7 2.1 140.6 4.7 140.6Z" fill="#721B65"/>
</svg>
