<svg width="116" height="116" viewBox="0 0 116 116" fill="none" xmlns="http://www.w3.org/2000/svg">
<path d="M16.5 58.0002C16.5 29.5002 37.7 5.9002 65.3 2.2002C62.8 1.9002 60.3 1.7002 57.8 1.7002C26.7 1.7002 1.5 26.9002 1.5 58.0002C1.5 89.1002 26.7 114.3 57.8 114.3C60.3 114.3 62.8 114.1 65.3 113.8C37.8 110.1 16.5 86.5002 16.5 58.0002Z" fill="#F1E8F0"/>
<path d="M114 56C112.9 56 112 56.9 112 58C112 87.8 87.8 112 58 112C28.2 112 4 87.8 4 58C4 28.2 28.2 4 58 4C69.3 4 80.2 7.5 89.4 14.1L97.3 19.7H80.8C79.7 19.7 78.8 20.6 78.8 21.7C78.8 22.8 79.7 23.7 80.8 23.7H100.6C101.7 23.7 102.6 22.8 102.6 21.7V2C102.6 0.9 101.7 0 100.6 0C99.5 0 98.6 0.9 98.6 2V16L93.6 12.1C83.4 4.3 70.8 0 58 0C42.5 0 27.9 6 17 17C6 27.9 0 42.5 0 58C0 73.5 6 88.1 17 99C28 110 42.5 116 58 116C73.5 116 88.1 110 99 99C110 88 116 73.5 116 58C116 56.9 115.1 56 114 56Z" fill="#721B65"/>
<path d="M41.6001 72.1997C41.6001 60.4997 50.3001 50.6997 61.5001 48.9997C60.3001 48.7997 59.2001 48.6997 58.0001 48.6997C45.1001 48.6997 34.6001 59.2997 34.6001 72.0997C34.6001 84.8997 45.1001 95.6997 58.0001 95.6997C59.2001 95.6997 60.3001 95.5997 61.5001 95.3997C50.3001 93.6997 41.6001 83.8997 41.6001 72.1997Z" fill="#F1E8F0"/>
<path d="M78.4001 55.2998V37.6998C78.4001 26.4998 69.3001 17.2998 58.0001 17.2998C46.8001 17.2998 37.7001 26.3998 37.7001 37.6998V55.2998C33.7001 59.9998 31.6001 65.9998 31.6001 72.1998C31.6001 86.7998 43.5001 98.5998 58.0001 98.5998C72.5001 98.5998 84.4001 86.6998 84.4001 72.1998C84.5001 66.0998 82.4001 60.0998 78.4001 55.2998ZM58.0001 49.5998C70.5001 49.5998 80.6001 59.6998 80.6001 72.1998C80.6001 84.5998 70.5001 94.6998 58.0001 94.6998C45.6001 94.6998 35.5001 84.5998 35.5001 72.1998C35.5001 59.7998 45.6001 49.5998 58.0001 49.5998ZM74.3001 51.2998C73.8001 50.8998 73.3001 50.5998 72.8001 50.1998L70.1001 48.5998C66.3001 46.5998 62.2001 45.5998 58.0001 45.5998C53.8001 45.5998 49.7001 46.5998 45.9001 48.5998L43.2001 50.1998C42.7001 50.5998 42.1001 50.9998 41.6001 51.3998V37.6998C41.6001 28.6998 48.9001 21.2998 58.0001 21.2998C67.0001 21.2998 74.4001 28.5998 74.4001 37.6998V51.2998H74.3001Z" fill="#721B65"/>
<path d="M63.6 67.2997C62.9 65.0997 60.8 63.6997 58.5 63.6997C56.2 63.6997 54.2 65.0997 53.4 67.2997C52.7 69.3997 53.3 71.6997 55 73.0997V77.1997C55 79.0997 56.5 80.5997 58.4 80.5997C60.3 80.5997 61.8 79.0997 61.8 77.1997V73.0997C63.7 71.7997 64.4 69.3997 63.6 67.2997ZM59 72.3997V77.1997C59 77.3997 58.8 77.5997 58.6 77.5997C58.4 77.5997 58.2 77.3997 58.2 77.1997V72.3997C58.2 71.8997 57.9 71.3997 57.5 71.0997C56.6 70.5997 56.1 69.4997 56.4 68.4997C56.7 67.4997 57.6 66.7997 58.7 66.7997C59.8 66.7997 60.7 67.4997 61 68.4997C61.3 69.4997 60.8 70.5997 59.9 71.0997C59.3 71.3997 59 71.8997 59 72.3997Z" fill="#721B65"/>
</svg>
