<svg width="94" height="84" viewBox="0 0 94 84" fill="none" xmlns="http://www.w3.org/2000/svg">
<path d="M19.2994 39.5C19.2994 33.8 23.1994 28.7 28.9994 27.4C22.1994 25.9 15.5994 29.9 13.8994 36.6C12.1994 43.3 16.3994 49.9 23.1994 51.6C25.0994 52.1 27.0994 52.1 28.9994 51.6C23.1994 50.1 19.2994 45.2 19.2994 39.5Z" fill="#F1E8F0"/>
<path d="M28.4992 59.8001C27.4992 59.6001 26.5992 59.6001 25.5992 59.6001C12.9992 59.6001 2.89922 69.3001 2.19922 81.6001H7.99922C8.69922 70.6001 17.2992 61.3001 28.4992 59.8001Z" fill="#F1E8F0"/>
<path d="M73.1 63.7999H67.7V50.9C67.7 50.2 67.2 49.7 66.5 49.7C65.8 49.7 65.3 50.2 65.3 50.9V63.7999H48.7V50.9C48.7 50.2 48.2 49.7 47.5 49.7C46.8 49.7 46.3 50.2 46.3 50.9V63.7999H42.7H42.5C37.7 59.5999 31.6 57.4 25.4 57.4C11.5 57.3 0 68.9 0 82.8C0 83.5 0.5 84 1.2 84H50.2C50.9 84 51.4 83.5 51.4 82.8C51.4 76.6 49.2 70.7 45.1 66H73.3C74 66 74.5 65.5 74.5 64.8C74.3 64.3 73.8 63.7999 73.1 63.7999ZM2.4 81.5999C2.9 68.7999 13.9 59.0999 26.8 59.7999C38.8 60.4999 48.3 69.9 49 81.8H2.4V81.5999Z" fill="#721B65"/>
<path d="M87.9 0H26.1C22.7 0 20 2.9 20 6V26.8H22.4V6C22.4 4 24.1 2.1 26.1 2.1H87.9C89.9 2.1 91.6 3.9 91.6 6V45.8C91.6 47.8 89.9 49.5 87.9 49.5H33.3V52H87.9C91.3 52 94 49.3 94 46V6C94 2.9 91.3 0 87.9 0Z" fill="#721B65"/>
<path d="M40.8992 40.3C40.8992 40.1 40.8992 39.6 40.8992 39.3C40.8992 31.2 34.2992 24.5 26.0992 24.5C17.9992 24.5 11.1992 31.1 11.1992 39.1C11.1992 47.1 17.7992 53.9 25.9992 53.9C32.9992 53.9 38.8992 49.2 40.5992 42.5H91.7992V40.3H40.8992ZM26.0992 51.7C19.0992 51.7 13.4992 46.2 13.4992 39.3C13.4992 32.4 19.0992 26.9 26.0992 26.9C33.0992 26.9 38.6992 32.4 38.6992 39.3C38.4992 46.2 32.8992 51.7 26.0992 51.7Z" fill="#721B65"/>
<path d="M37.3008 18.8L46.3008 24.8" stroke="#721B65" stroke-width="2" stroke-miterlimit="10"/>
<path d="M52.0996 23.3L58.2996 13.8" stroke="#721B65" stroke-width="2" stroke-miterlimit="10"/>
<path d="M64.9004 10.3999L74.4004 13.7999" stroke="#721B65" stroke-width="2" stroke-miterlimit="10"/>
<path d="M81.8 19.6C81.7 19.6 81.6 19.6 81.5 19.5L78.7 16.9C78.6 16.8 78.5 16.7 78.5 16.5C78.5 16.2 78.7 15.9 79 15.9H80.1C80.1 15.9 80.2 15.9 80.3 15.9C80.6 15.9 80.8 15.7 81 15.5L81.2 15.3H79C78.7 15.3 78.5 15.1 78.5 14.7C78.5 14.4 78.7 14.1 79 14H81.1H81C80.8 13.7 80.5 13.5 80.1 13.5H79C78.7 13.5 78.5 13.3 78.5 12.9C78.5 12.5 78.7 12.3 79 12.3H82.9C83.2 12.3 83.4 12.5 83.4 12.9C83.4 13.3 83.2 13.5 82.9 13.5H82L82.2 13.8C82.3 13.9 82.3 14 82.3 14.1V14.2H83C83.3 14.2 83.5 14.4 83.5 14.8C83.5 15.1 83.3 15.4 83 15.4H82.3V15.5C82.1 16.3 81.5 16.9 80.7 17.1L80.5 17L82.3 18.7C82.4 18.8 82.6 19.2 82.3 19.5C82.1 19.6 82 19.6 81.8 19.6Z" fill="#721B65"/>
<path d="M80.9996 23.9001C85.3627 23.9001 88.8996 20.3631 88.8996 16.0001C88.8996 11.637 85.3627 8.1001 80.9996 8.1001C76.6366 8.1001 73.0996 11.637 73.0996 16.0001C73.0996 20.3631 76.6366 23.9001 80.9996 23.9001Z" stroke="#721B65" stroke-width="2" stroke-miterlimit="10"/>
<path d="M61.0996 14.6001C63.3087 14.6001 65.0996 12.8092 65.0996 10.6001C65.0996 8.39096 63.3087 6.6001 61.0996 6.6001C58.8905 6.6001 57.0996 8.39096 57.0996 10.6001C57.0996 12.8092 58.8905 14.6001 61.0996 14.6001Z" stroke="#721B65" stroke-width="2" stroke-miterlimit="10"/>
<path d="M49.5996 30C51.8087 30 53.5996 28.2091 53.5996 26C53.5996 23.7909 51.8087 22 49.5996 22C47.3905 22 45.5996 23.7909 45.5996 26C45.5996 28.2091 47.3905 30 49.5996 30Z" stroke="#721B65" stroke-width="2" stroke-miterlimit="10"/>
<path d="M34.5 20.5C36.7091 20.5 38.5 18.7091 38.5 16.5C38.5 14.2909 36.7091 12.5 34.5 12.5C32.2909 12.5 30.5 14.2909 30.5 16.5C30.5 18.7091 32.2909 20.5 34.5 20.5Z" stroke="#721B65" stroke-width="2" stroke-miterlimit="10"/>
</svg>
