<svg width="16" height="16" viewBox="0 0 16 16" fill="none" xmlns="http://www.w3.org/2000/svg">
<path d="M16 8C16 12.4 12.4 16 8 16C3.6 16 0 12.4 0 8C0 3.6 3.6 0 8 0C12.4 0 16 3.6 16 8Z" fill="#FF4D4F"/>
<path d="M8.6999 7.99999L10.8999 5.79999C10.9999 5.69999 11.0999 5.59999 11.0999 5.39999C11.0999 5.29999 10.9999 5.09999 10.8999 4.99999C10.7999 4.89999 10.6999 4.79999 10.4999 4.79999C10.2999 4.79999 10.1999 4.89999 10.0999 4.99999L7.9999 7.29999L5.7999 5.09999C5.6999 4.89999 5.5999 4.89999 5.3999 4.89999C5.2999 4.89999 5.1999 4.89999 5.0999 4.99999C4.8999 5.09999 4.8999 5.29999 4.8999 5.39999C4.8999 5.49999 4.9999 5.69999 5.0999 5.79999L7.2999 7.99999L5.0999 10.2C4.9999 10.3 4.8999 10.4 4.8999 10.6C4.8999 10.7 4.9999 10.9 5.0999 11C5.1999 11.1 5.2999 11.2 5.4999 11.2C5.5999 11.2 5.7999 11.1 5.8999 11L7.9999 8.69999L10.1999 10.9C10.2999 11 10.3999 11.1 10.5999 11.1C10.6999 11.1 10.8999 11 10.9999 10.9C11.0999 10.8 11.1999 10.7 11.1999 10.5C11.1999 10.4 11.0999 10.2 10.9999 10.1L8.6999 7.99999Z" fill="white"/>
</svg>
