<svg width="187" height="134" viewBox="0 0 187 134" fill="none" xmlns="http://www.w3.org/2000/svg">
<rect x="0.5" y="0.5" width="186" height="132.875" rx="5.5" fill="white" stroke="#721B65"/>
<path d="M1.00635 6.00635C1.00635 3.24492 3.24492 1.00635 6.00635 1.00635H180.996C183.757 1.00635 185.996 3.24492 185.996 6.00635V17.6149H1.00635V6.00635Z" fill="#721B65"/>
<g clip-path="url(#clip0)">
<path d="M90.4349 36.2368H70.376V37.342H90.4349V36.2368Z" fill="#721B65"/>
<path d="M80.2852 38.8315H70.376V39.9368H80.2852V38.8315Z" fill="#721B65"/>
<path d="M85.4801 106.057H81.8242V107.114H85.4801V106.057Z" fill="#CFCBCF"/>
<path d="M94.7153 111.68H90.0493V112.737H94.7153V111.68Z" fill="#C3CBD7"/>
<path d="M110.878 111.68H106.212V112.737H110.878V111.68Z" fill="#C3CBD7"/>
<path d="M127.041 111.68H122.375V112.737H127.041V111.68Z" fill="#C3CBD7"/>
<path d="M143.251 111.68H138.585V112.737H143.251V111.68Z" fill="#C3CBD7"/>
<path d="M159.414 111.68H154.748V112.737H159.414V111.68Z" fill="#C3CBD7"/>
<path d="M175.577 111.68H170.911V112.737H175.577V111.68Z" fill="#C3CBD7"/>
<path d="M85.4801 92.1221H81.8242V93.1792H85.4801V92.1221Z" fill="#CFCBCF"/>
<path d="M85.4801 65.7891H81.8242V66.8462H85.4801V65.7891Z" fill="#CFCBCF"/>
<path d="M85.4801 52.6226H81.8242V53.6797H85.4801V52.6226Z" fill="#CFCBCF"/>
<path d="M85.6729 78.9556H82.0171V80.0127H85.6729V78.9556Z" fill="#CFCBCF"/>
<path d="M175.433 107.115C175.433 107.115 175.289 107.115 175.048 107.115C174.759 107.115 174.423 107.115 173.894 107.115C172.883 107.115 171.392 107.115 169.516 107.115C165.668 107.115 160.184 107.115 153.354 107.163C139.692 107.163 120.836 107.163 100.007 107.211C95.678 107.211 91.445 107.211 87.3562 107.211H87.2119V107.066C87.2119 89.2389 87.26 73.5737 87.26 62.3294C87.26 56.7072 87.3081 52.2383 87.3081 49.1148C87.3081 47.5772 87.3081 46.3758 87.3081 45.5589C87.3081 45.1745 87.3081 44.8382 87.3081 44.6459C87.3081 44.4537 87.3081 44.3096 87.3081 44.3096C87.3081 44.3096 87.3081 44.4057 87.3081 44.6459C87.3081 44.8382 87.3081 45.1745 87.3081 45.5589C87.3081 46.3758 87.3081 47.5772 87.3081 49.1148C87.3081 52.2383 87.3081 56.7072 87.3562 62.3294C87.3562 73.5737 87.4043 89.2389 87.4043 107.066L87.26 106.922C91.3488 106.922 95.5818 106.922 99.9111 106.922C120.74 106.922 139.596 106.97 153.257 106.97C160.088 106.97 165.62 107.018 169.42 107.018C171.344 107.018 172.787 107.018 173.797 107.018C174.278 107.018 174.663 107.018 174.952 107.018C175.289 107.115 175.433 107.115 175.433 107.115Z" fill="#CFCBCF"/>
<path d="M176.443 79.4838C176.443 79.5318 157.298 79.6278 133.632 79.6278C109.965 79.6278 90.8198 79.5798 90.8198 79.4838C90.8198 79.4358 109.965 79.3398 133.632 79.3398C157.298 79.3398 176.443 79.4358 176.443 79.4838Z" fill="#CFCBCF"/>
<path d="M176.443 66.3178C176.443 66.3658 157.298 66.4618 133.632 66.4618C109.965 66.4618 90.8198 66.4138 90.8198 66.3178C90.8198 66.2698 109.965 66.1738 133.632 66.1738C157.298 66.2218 176.443 66.2698 176.443 66.3178Z" fill="#CFCBCF"/>
<path d="M176.443 53.103C176.443 53.151 157.298 53.247 133.632 53.247C109.965 53.247 90.8198 53.199 90.8198 53.103C90.8198 53.055 109.965 52.959 133.632 52.959C157.298 53.007 176.443 53.055 176.443 53.103Z" fill="#CFCBCF"/>
<path d="M176.443 92.6503C176.443 92.6983 157.298 92.7943 133.632 92.7943C109.965 92.7943 90.8198 92.7463 90.8198 92.6503C90.8198 92.6023 109.965 92.5063 133.632 92.5063C157.298 92.5063 176.443 92.5543 176.443 92.6503Z" fill="#263238"/>
<path d="M91.7334 104.279C91.7334 102.069 91.7334 92.6026 91.7334 92.6026L98.997 81.3102L103.952 85.1063L114.101 69.3931L120.066 73.6217L128.388 59.1098L135.122 64.5878L145.272 45.3667L156.191 66.8943L165.042 56.1305L175.433 53.1512V104.327H91.7334V104.279Z" fill="#FFD868"/>
<path d="M176.443 48.9706C176.443 48.9706 176.395 48.9706 176.25 48.9706C176.106 48.9706 175.962 48.9706 175.721 48.9706C175.24 48.9706 174.518 48.9706 173.605 48.9706C171.729 48.9706 169.035 48.9706 165.619 49.0187L165.668 48.9706C163.359 51.9979 160.424 55.7941 157.105 60.1189L157.057 60.1669H157.009C150.804 60.1669 143.54 60.1669 135.603 60.1669L135.699 60.1189C132.861 64.78 129.831 69.8736 126.704 75.0633C123.625 80.1569 120.691 85.0582 117.853 89.7194L117.757 89.8635L117.661 89.7194C113.428 83.905 109.531 78.5231 106.068 73.8139H106.26C101.883 80.6854 98.2271 86.3557 95.6776 90.296C94.4269 92.2662 93.4168 93.8038 92.7433 94.861C92.4066 95.3896 92.1661 95.774 91.9737 96.0623C91.7813 96.3506 91.6851 96.4467 91.6851 96.4467C91.6851 96.4467 91.7813 96.3026 91.9256 96.0143C92.118 95.726 92.3585 95.3415 92.6952 94.813C93.3687 93.7558 94.3307 92.2181 95.5814 90.2479C98.0828 86.3076 101.69 80.5893 106.068 73.7178L106.164 73.5736L106.26 73.7178C109.724 78.475 113.668 83.8089 117.901 89.6233H117.709C120.499 84.9621 123.481 80.0608 126.512 74.9672C129.638 69.7294 132.717 64.6839 135.507 60.0228L135.555 59.9747H135.603C143.54 59.9747 150.804 59.9747 157.009 59.9747L156.913 60.0228C160.28 55.698 163.166 51.9018 165.523 48.9226V48.8745H165.571C168.987 48.8745 171.68 48.9226 173.556 48.9226C174.47 48.9226 175.192 48.9226 175.673 48.9226C175.913 48.9226 176.106 48.9226 176.202 48.9226C176.395 48.9706 176.443 48.9706 176.443 48.9706Z" fill="#721B65"/>
<path d="M108.906 78.3307C109.357 78.3307 109.723 77.9864 109.723 77.5618C109.723 77.1372 109.357 76.793 108.906 76.793C108.454 76.793 108.088 77.1372 108.088 77.5618C108.088 77.9864 108.454 78.3307 108.906 78.3307Z" fill="#721B65"/>
<path d="M133.583 64.3477C134.035 64.3477 134.401 64.0035 134.401 63.5789C134.401 63.1543 134.035 62.8101 133.583 62.8101C133.132 62.8101 132.766 63.1543 132.766 63.5789C132.766 64.0035 133.132 64.3477 133.583 64.3477Z" fill="#721B65"/>
<path d="M152.776 60.8878C153.228 60.8878 153.594 60.5436 153.594 60.1189C153.594 59.6943 153.228 59.3501 152.776 59.3501C152.325 59.3501 151.958 59.6943 151.958 60.1189C151.958 60.5436 152.325 60.8878 152.776 60.8878Z" fill="#721B65"/>
</g>
<path d="M32.9335 76.0127C45.0054 76.0127 54.8085 66.1978 54.8085 54.1116C54.8085 42.0253 45.0054 32.2104 32.9335 32.2104C20.8617 32.2104 11.0586 42.0533 11.0586 54.1396C11.0586 66.2259 20.8617 76.0127 32.9335 76.0127Z" fill="#DEE3ED"/>
<path d="M35.0344 64.459H30.749V67.0108H35.0344V64.459Z" fill="#F8BB94"/>
<path d="M31.0013 66.3939C31.5054 65.8611 32.1496 65.6087 32.8779 65.5526C33.4941 65.5246 34.5304 65.6368 34.8665 64.9918C34.8945 64.8796 34.9786 64.7955 35.0626 64.7675V64.459H30.7212V66.6743C30.8052 66.5622 30.9173 66.478 31.0013 66.3939Z" fill="#F0A778"/>
<path d="M41.6997 58.1775C42.7921 58.1775 43.6884 57.3082 43.6884 56.2425C43.6884 55.1769 42.7921 54.3076 41.6997 54.3076C40.6074 54.3076 39.7111 55.1769 39.7111 56.2425C39.6831 57.3082 40.5794 58.1775 41.6997 58.1775Z" fill="#F8BB94"/>
<path d="M41.9533 55.2051C41.9533 55.2051 41.9813 55.2051 42.0933 55.2051C42.1774 55.2051 42.3174 55.2051 42.4295 55.2892C42.5695 55.3172 42.7376 55.4294 42.8496 55.6257C42.8776 55.6538 42.8776 55.7098 42.9336 55.7659C42.9336 55.794 42.9616 55.8781 42.9616 55.9061V56.0463C42.9616 56.0744 42.9616 56.1585 42.9616 56.1866C42.9616 56.2987 42.9336 56.3829 42.8776 56.495C42.8496 56.6072 42.7936 56.6913 42.7656 56.7474C42.6535 56.9437 42.5415 57.0559 42.4014 57.112C42.3174 57.14 42.2614 57.1961 42.2054 57.1961C42.1214 57.1961 42.0933 57.2241 42.0653 57.2241C41.9813 57.2241 41.9253 57.2241 41.9253 57.2241C41.9253 57.2241 41.9533 57.2241 42.0373 57.1961C42.0653 57.1961 42.1214 57.168 42.1494 57.112C42.1774 57.0839 42.2614 57.0278 42.2894 56.9998C42.3174 56.9717 42.4014 56.8876 42.4295 56.8596C42.4575 56.7755 42.5135 56.7474 42.5415 56.6633C42.5695 56.5792 42.6255 56.5231 42.6255 56.4389C42.6535 56.3548 42.6535 56.2987 42.6535 56.1866V56.0744V55.9622C42.6535 55.9342 42.6535 55.8781 42.6255 55.8501C42.6255 55.822 42.5975 55.7659 42.5975 55.7379C42.5135 55.5977 42.4014 55.5135 42.2894 55.4294C42.1774 55.3453 42.0653 55.3172 41.9813 55.2892C41.9813 55.2051 41.9533 55.2051 41.9533 55.2051Z" fill="#DADADA"/>
<path d="M41.8688 56.7193C42.0649 56.7193 42.2049 56.5511 42.2049 56.3548C42.2049 56.1585 42.0649 55.9902 41.8688 55.9902C41.6728 55.9902 41.5327 56.1585 41.5327 56.3548C41.5327 56.5511 41.7008 56.7193 41.8688 56.7193Z" fill="#DADADA"/>
<path d="M24.4198 58.1775C25.5121 58.1775 26.4084 57.3082 26.4084 56.2425C26.4084 55.1769 25.5121 54.3076 24.4198 54.3076C23.3274 54.3076 22.4312 55.1769 22.4312 56.2425C22.4312 57.3082 23.2994 58.1775 24.4198 58.1775Z" fill="#F8BB94"/>
<path d="M24.1665 55.2051C24.1665 55.2051 24.1385 55.2051 24.0265 55.2051C23.9424 55.2051 23.8024 55.2051 23.6904 55.2892C23.5503 55.3172 23.3823 55.4294 23.2702 55.6257C23.2422 55.6538 23.2422 55.7098 23.1862 55.7659C23.1862 55.794 23.1582 55.8781 23.1582 55.9061V56.0463C23.1582 56.0744 23.1582 56.1585 23.1582 56.1866C23.1582 56.2987 23.1862 56.3829 23.2422 56.495C23.2702 56.6072 23.3263 56.6913 23.3543 56.7474C23.4663 56.9437 23.5783 57.0559 23.7184 57.112C23.8024 57.14 23.8584 57.1961 23.9144 57.1961C23.9985 57.1961 24.0265 57.2241 24.0545 57.2241C24.1385 57.2241 24.1945 57.2241 24.1945 57.2241C24.1945 57.2241 24.1665 57.2241 24.0825 57.1961C24.0545 57.1961 23.9985 57.168 23.9705 57.112C23.9424 57.0839 23.8584 57.0278 23.8304 56.9998C23.8024 56.9717 23.7184 56.8876 23.6904 56.8596C23.6624 56.7755 23.6063 56.7474 23.5783 56.6633C23.5503 56.5792 23.4943 56.5231 23.4943 56.4389C23.4663 56.3548 23.4663 56.2987 23.4663 56.1866V56.0744V55.9622C23.4663 55.9342 23.4943 55.8781 23.4943 55.8501C23.4943 55.822 23.5223 55.7659 23.5223 55.7379C23.6063 55.5977 23.7184 55.5135 23.8304 55.4294C23.9424 55.3453 24.0545 55.3172 24.1385 55.2892C24.0825 55.2051 24.1665 55.2051 24.1665 55.2051Z" fill="#DADADA"/>
<path d="M24.2233 56.7193C24.4194 56.7193 24.5594 56.5511 24.5594 56.3548C24.5594 56.1585 24.4194 55.9902 24.2233 55.9902C24.0273 55.9902 23.8872 56.1585 23.8872 56.3548C23.8872 56.5511 24.0553 56.7193 24.2233 56.7193Z" fill="#DADADA"/>
<path d="M41.702 53.7187C41.702 60.2246 38.6771 64.7955 32.9353 64.7955C27.1934 64.7955 24.1685 60.2526 24.1685 53.7187C24.1685 47.1848 27.3615 41.9409 33.0473 41.9409C38.7611 41.9409 41.702 47.2409 41.702 53.7187Z" fill="#F8BB94"/>
<path d="M30.8625 66.8984C30.8625 66.8984 25.4288 67.5995 23.4681 69.3101C21.4795 71.0487 20.8913 72.535 20.1631 75.9281H32.8511H33.0472H45.7352C45.035 72.5069 44.4468 70.9926 42.4302 69.3101C40.4695 67.5995 35.0358 66.8984 35.0358 66.8984H30.8625Z" fill="#F8BB94"/>
<path d="M37.0792 67.3193C37.0792 67.3193 40.4122 67.6558 42.3728 69.3664C44.3615 71.1051 44.9497 72.5913 45.6779 75.9844H33.0179H32.8218H20.1338C20.834 72.5633 21.4222 71.049 23.4388 69.3664C25.3995 67.6558 28.7605 67.3193 28.7605 67.3193C28.7605 67.3193 28.0323 71.9744 33.1019 71.9463C33.1019 71.9183 37.3032 72.0865 37.0792 67.3193Z" fill="#721B65"/>
<path d="M29.4316 67.1792C29.4316 67.2633 29.4316 67.3194 29.4316 67.4316C29.4316 67.4596 29.2076 69.1422 30.1319 70.2078C30.72 70.9088 31.7284 71.2453 33.0448 71.2453H33.0728C33.0728 71.2453 34.4732 71.2734 35.4535 70.3199C36.1258 69.6469 36.4058 68.4972 36.3498 67.1792L37.7503 67.4316C37.7783 69.0861 37.3301 70.4041 36.4058 71.3295C35.1454 72.5914 33.4369 72.6755 33.0728 72.6755C32.9888 72.6755 32.9888 72.6755 32.9608 72.6755C31.2242 72.6755 29.8798 72.1707 29.0395 71.1612C27.8911 69.8152 27.9191 68.0766 27.9752 67.4596L29.4316 67.1792Z" fill="#FFD868"/>
<path d="M24.1961 54.7565L25.0923 55.6538L25.2884 48.475C25.2884 48.475 25.3724 44.7734 29.2937 44.7734C29.2937 44.7734 32.5427 46.484 36.66 45.0819C36.66 45.0819 40.3572 44.493 40.8053 48.3348L40.7773 55.8221L41.7296 54.6723L41.7576 53.7189C41.7576 53.7189 42.3178 50.5782 41.7576 45.8951C41.7576 45.8951 41.0294 40.7353 36.3799 39.894C36.3799 39.894 28.7895 37.931 25.6245 42.6982C25.6245 42.6982 23.1877 45.5586 23.86 49.9893L24.1961 54.7565Z" fill="#732400"/>
<rect x="11.0591" y="95.625" width="45.7446" height="2.01316" rx="1.00658" fill="#CFCBCF"/>
<rect x="11.0596" y="105.188" width="33.6801" height="2.01316" rx="1.00658" fill="#CFCBCF"/>
<rect x="11.0596" y="114.75" width="22.621" height="2.01316" rx="1.00658" fill="#CFCBCF"/>
<path d="M11.0257 87.0591H12.5557C12.929 87.0591 13.2607 87.1324 13.5507 87.2791C13.8407 87.4224 14.0657 87.6274 14.2257 87.8941C14.3857 88.1574 14.4657 88.4624 14.4657 88.8091C14.4657 89.1557 14.3857 89.4624 14.2257 89.7291C14.0657 89.9924 13.8407 90.1974 13.5507 90.3441C13.2607 90.4874 12.929 90.5591 12.5557 90.5591H11.0257V87.0591ZM12.5257 90.0091C12.7823 90.0091 13.0073 89.9607 13.2007 89.8641C13.3973 89.7641 13.5473 89.6241 13.6507 89.4441C13.7573 89.2607 13.8107 89.0491 13.8107 88.8091C13.8107 88.5691 13.7573 88.3591 13.6507 88.1791C13.5473 87.9957 13.3973 87.8557 13.2007 87.7591C13.0073 87.6591 12.7823 87.6091 12.5257 87.6091H11.6757V90.0091H12.5257ZM17.6065 89.2391C17.6065 89.2824 17.6032 89.3441 17.5965 89.4241H15.5015C15.5382 89.6207 15.6332 89.7774 15.7865 89.8941C15.9432 90.0074 16.1365 90.0641 16.3665 90.0641C16.6599 90.0641 16.9015 89.9674 17.0915 89.7741L17.4265 90.1591C17.3065 90.3024 17.1549 90.4107 16.9715 90.4841C16.7882 90.5574 16.5815 90.5941 16.3515 90.5941C16.0582 90.5941 15.7999 90.5357 15.5765 90.4191C15.3532 90.3024 15.1799 90.1407 15.0565 89.9341C14.9365 89.7241 14.8765 89.4874 14.8765 89.2241C14.8765 88.9641 14.9349 88.7307 15.0515 88.5241C15.1715 88.3141 15.3365 88.1507 15.5465 88.0341C15.7565 87.9174 15.9932 87.8591 16.2565 87.8591C16.5165 87.8591 16.7482 87.9174 16.9515 88.0341C17.1582 88.1474 17.3182 88.3091 17.4315 88.5191C17.5482 88.7257 17.6065 88.9657 17.6065 89.2391ZM16.2565 88.3591C16.0565 88.3591 15.8865 88.4191 15.7465 88.5391C15.6099 88.6557 15.5265 88.8124 15.4965 89.0091H17.0115C16.9849 88.8157 16.9032 88.6591 16.7665 88.5391C16.6299 88.4191 16.4599 88.3591 16.2565 88.3591ZM21.5769 87.8591C21.9135 87.8591 22.1802 87.9574 22.3769 88.1541C22.5735 88.3474 22.6719 88.6391 22.6719 89.0291V90.5591H22.0469V89.1091C22.0469 88.8757 21.9952 88.7007 21.8919 88.5841C21.7885 88.4641 21.6402 88.4041 21.4469 88.4041C21.2369 88.4041 21.0685 88.4741 20.9419 88.6141C20.8152 88.7507 20.7519 88.9474 20.7519 89.2041V90.5591H20.1269V89.1091C20.1269 88.8757 20.0752 88.7007 19.9719 88.5841C19.8685 88.4641 19.7202 88.4041 19.5269 88.4041C19.3135 88.4041 19.1435 88.4724 19.0169 88.6091C18.8935 88.7457 18.8319 88.9441 18.8319 89.2041V90.5591H18.2069V87.8891H18.8019V88.2291C18.9019 88.1091 19.0269 88.0174 19.1769 87.9541C19.3269 87.8907 19.4935 87.8591 19.6769 87.8591C19.8769 87.8591 20.0535 87.8974 20.2069 87.9741C20.3635 88.0474 20.4869 88.1574 20.5769 88.3041C20.6869 88.1641 20.8285 88.0557 21.0019 87.9791C21.1752 87.8991 21.3669 87.8591 21.5769 87.8591ZM24.4905 87.8591C24.8839 87.8591 25.1839 87.9541 25.3905 88.1441C25.6005 88.3307 25.7055 88.6141 25.7055 88.9941V90.5591H25.1155V90.2341C25.0389 90.3507 24.9289 90.4407 24.7855 90.5041C24.6455 90.5641 24.4755 90.5941 24.2755 90.5941C24.0755 90.5941 23.9005 90.5607 23.7505 90.4941C23.6005 90.4241 23.4839 90.3291 23.4005 90.2091C23.3205 90.0857 23.2805 89.9474 23.2805 89.7941C23.2805 89.5541 23.3689 89.3624 23.5455 89.2191C23.7255 89.0724 24.0072 88.9991 24.3905 88.9991H25.0805V88.9591C25.0805 88.7724 25.0239 88.6291 24.9105 88.5291C24.8005 88.4291 24.6355 88.3791 24.4155 88.3791C24.2655 88.3791 24.1172 88.4024 23.9705 88.4491C23.8272 88.4957 23.7055 88.5607 23.6055 88.6441L23.3605 88.1891C23.5005 88.0824 23.6689 88.0007 23.8655 87.9441C24.0622 87.8874 24.2705 87.8591 24.4905 87.8591ZM24.4055 90.1391C24.5622 90.1391 24.7005 90.1041 24.8205 90.0341C24.9439 89.9607 25.0305 89.8574 25.0805 89.7241V89.4141H24.4355C24.0755 89.4141 23.8955 89.5324 23.8955 89.7691C23.8955 89.8824 23.9405 89.9724 24.0305 90.0391C24.1205 90.1057 24.2455 90.1391 24.4055 90.1391ZM28.1127 90.4141C28.0393 90.4741 27.9493 90.5191 27.8427 90.5491C27.7393 90.5791 27.6293 90.5941 27.5127 90.5941C27.2193 90.5941 26.9927 90.5174 26.8327 90.3641C26.6727 90.2107 26.5927 89.9874 26.5927 89.6941V88.4091H26.1527V87.9091H26.5927V87.2991H27.2177V87.9091H27.9327V88.4091H27.2177V89.6791C27.2177 89.8091 27.2493 89.9091 27.3127 89.9791C27.376 90.0457 27.4677 90.0791 27.5877 90.0791C27.7277 90.0791 27.8443 90.0424 27.9377 89.9691L28.1127 90.4141ZM32.3386 89.7491H30.5886L30.2436 90.5591H29.5736L31.1486 87.0591H31.7886L33.3686 90.5591H32.6886L32.3386 89.7491ZM32.1236 89.2391L31.4636 87.7091L30.8086 89.2391H32.1236ZM34.9543 90.5941C34.6777 90.5941 34.4293 90.5357 34.2093 90.4191C33.9893 90.3024 33.8177 90.1407 33.6943 89.9341C33.571 89.7241 33.5093 89.4874 33.5093 89.2241C33.5093 88.9607 33.571 88.7257 33.6943 88.5191C33.8177 88.3124 33.9877 88.1507 34.2043 88.0341C34.4243 87.9174 34.6743 87.8591 34.9543 87.8591C35.2177 87.8591 35.4477 87.9124 35.6443 88.0191C35.8443 88.1257 35.9943 88.2791 36.0943 88.4791L35.6143 88.7591C35.5377 88.6357 35.441 88.5441 35.3243 88.4841C35.211 88.4207 35.086 88.3891 34.9493 88.3891C34.716 88.3891 34.5227 88.4657 34.3693 88.6191C34.216 88.7691 34.1393 88.9707 34.1393 89.2241C34.1393 89.4774 34.2143 89.6807 34.3643 89.8341C34.5177 89.9841 34.7127 90.0591 34.9493 90.0591C35.086 90.0591 35.211 90.0291 35.3243 89.9691C35.441 89.9057 35.5377 89.8124 35.6143 89.6891L36.0943 89.9691C35.991 90.1691 35.8393 90.3241 35.6393 90.4341C35.4427 90.5407 35.2143 90.5941 34.9543 90.5941ZM37.8205 90.5941C37.5439 90.5941 37.2955 90.5357 37.0755 90.4191C36.8555 90.3024 36.6839 90.1407 36.5605 89.9341C36.4372 89.7241 36.3755 89.4874 36.3755 89.2241C36.3755 88.9607 36.4372 88.7257 36.5605 88.5191C36.6839 88.3124 36.8539 88.1507 37.0705 88.0341C37.2905 87.9174 37.5405 87.8591 37.8205 87.8591C38.0839 87.8591 38.3139 87.9124 38.5105 88.0191C38.7105 88.1257 38.8605 88.2791 38.9605 88.4791L38.4805 88.7591C38.4039 88.6357 38.3072 88.5441 38.1905 88.4841C38.0772 88.4207 37.9522 88.3891 37.8155 88.3891C37.5822 88.3891 37.3889 88.4657 37.2355 88.6191C37.0822 88.7691 37.0055 88.9707 37.0055 89.2241C37.0055 89.4774 37.0805 89.6807 37.2305 89.8341C37.3839 89.9841 37.5789 90.0591 37.8155 90.0591C37.9522 90.0591 38.0772 90.0291 38.1905 89.9691C38.3072 89.9057 38.4039 89.8124 38.4805 89.6891L38.9605 89.9691C38.8572 90.1691 38.7055 90.3241 38.5055 90.4341C38.3089 90.5407 38.0805 90.5941 37.8205 90.5941ZM40.6618 90.5941C40.3918 90.5941 40.1484 90.5357 39.9318 90.4191C39.7151 90.3024 39.5451 90.1407 39.4218 89.9341C39.3018 89.7241 39.2418 89.4874 39.2418 89.2241C39.2418 88.9607 39.3018 88.7257 39.4218 88.5191C39.5451 88.3124 39.7151 88.1507 39.9318 88.0341C40.1484 87.9174 40.3918 87.8591 40.6618 87.8591C40.9351 87.8591 41.1801 87.9174 41.3968 88.0341C41.6134 88.1507 41.7818 88.3124 41.9018 88.5191C42.0251 88.7257 42.0868 88.9607 42.0868 89.2241C42.0868 89.4874 42.0251 89.7241 41.9018 89.9341C41.7818 90.1407 41.6134 90.3024 41.3968 90.4191C41.1801 90.5357 40.9351 90.5941 40.6618 90.5941ZM40.6618 90.0591C40.8918 90.0591 41.0818 89.9824 41.2318 89.8291C41.3818 89.6757 41.4568 89.4741 41.4568 89.2241C41.4568 88.9741 41.3818 88.7724 41.2318 88.6191C41.0818 88.4657 40.8918 88.3891 40.6618 88.3891C40.4318 88.3891 40.2418 88.4657 40.0918 88.6191C39.9451 88.7724 39.8718 88.9741 39.8718 89.2241C39.8718 89.4741 39.9451 89.6757 40.0918 89.8291C40.2418 89.9824 40.4318 90.0591 40.6618 90.0591ZM45.2694 87.8891V90.5591H44.6744V90.2191C44.5744 90.3391 44.4494 90.4324 44.2994 90.4991C44.1494 90.5624 43.9877 90.5941 43.8144 90.5941C43.4577 90.5941 43.1761 90.4957 42.9694 90.2991C42.7661 90.0991 42.6644 89.8041 42.6644 89.4141V87.8891H43.2894V89.3291C43.2894 89.5691 43.3427 89.7491 43.4494 89.8691C43.5594 89.9857 43.7144 90.0441 43.9144 90.0441C44.1377 90.0441 44.3144 89.9757 44.4444 89.8391C44.5777 89.6991 44.6444 89.4991 44.6444 89.2391V87.8891H45.2694ZM47.6027 87.8591C47.9394 87.8591 48.2094 87.9574 48.4127 88.1541C48.6161 88.3507 48.7177 88.6424 48.7177 89.0291V90.5591H48.0927V89.1091C48.0927 88.8757 48.0377 88.7007 47.9277 88.5841C47.8177 88.4641 47.6611 88.4041 47.4577 88.4041C47.2277 88.4041 47.0461 88.4741 46.9127 88.6141C46.7794 88.7507 46.7127 88.9491 46.7127 89.2091V90.5591H46.0877V87.8891H46.6827V88.2341C46.7861 88.1107 46.9161 88.0174 47.0727 87.9541C47.2294 87.8907 47.4061 87.8591 47.6027 87.8591ZM51.1156 90.4141C51.0423 90.4741 50.9523 90.5191 50.8456 90.5491C50.7423 90.5791 50.6323 90.5941 50.5156 90.5941C50.2223 90.5941 49.9956 90.5174 49.8356 90.3641C49.6756 90.2107 49.5956 89.9874 49.5956 89.6941V88.4091H49.1556V87.9091H49.5956V87.2991H50.2206V87.9091H50.9356V88.4091H50.2206V89.6791C50.2206 89.8091 50.2523 89.9091 50.3156 89.9791C50.3789 90.0457 50.4706 90.0791 50.5906 90.0791C50.7306 90.0791 50.8473 90.0424 50.9406 89.9691L51.1156 90.4141Z" fill="#721B65"/>
<path d="M7.28822 10.0665C8.25991 10.0665 9.04763 9.27783 9.04763 8.30497C9.04763 7.33211 8.25991 6.54346 7.28822 6.54346C6.31652 6.54346 5.52881 7.33211 5.52881 8.30497C5.52881 9.27783 6.31652 10.0665 7.28822 10.0665Z" fill="white"/>
<path d="M13.8224 10.066C14.7941 10.066 15.5818 9.27734 15.5818 8.30448C15.5818 7.33163 14.7941 6.54297 13.8224 6.54297C12.8507 6.54297 12.063 7.33163 12.063 8.30448C12.063 9.27734 12.8507 10.066 13.8224 10.066Z" fill="white"/>
<path d="M20.8605 10.066C21.8322 10.066 22.6199 9.27734 22.6199 8.30448C22.6199 7.33163 21.8322 6.54297 20.8605 6.54297C19.8888 6.54297 19.1011 7.33163 19.1011 8.30448C19.1011 9.27734 19.8888 10.066 20.8605 10.066Z" fill="white"/>
<defs>
<clipPath id="clip0">
<rect width="106.067" height="76.5" fill="white" transform="translate(70.376 36.2368)"/>
</clipPath>
</defs>
</svg>
