<svg width="36" height="36" viewBox="0 0 36 36" fill="none" xmlns="http://www.w3.org/2000/svg">
<rect opacity="0.3" width="36" height="36" rx="4" fill="#CFCBCF"/>
<path d="M28.7855 16.8069L19.2282 9.25155C18.8039 8.91615 18.1961 8.91615 17.7718 9.25155L8.21443 16.8069C7.79254 17.1404 8.03493 17.8047 8.57853 17.8047H10.5609V26.5121C10.5609 27.1327 11.078 27.6357 11.7157 27.6357H16.3348V20.3326C16.3348 19.7121 16.8518 19.2091 17.4896 19.2091H19.5104C20.1482 19.2091 20.6652 19.7121 20.6652 20.3326V27.6357H25.2843C25.922 27.6357 26.439 27.1327 26.439 26.5121V17.8047H28.4214C28.9651 17.8047 29.2075 17.1404 28.7855 16.8069Z" stroke="#721B65" stroke-width="1.3" stroke-linecap="round" stroke-linejoin="round"/>
</svg>
