<svg width="22" height="22" viewBox="0 0 22 22" fill="none" xmlns="http://www.w3.org/2000/svg">
<g clip-path="url(#clip0)">
<path d="M11.0479 21.3156C16.719 21.3156 21.3146 16.72 21.3146 11.0489C21.3146 5.37778 16.719 0.782227 11.0479 0.782227C5.37681 0.782227 0.78125 5.37778 0.78125 11.0489C0.78125 16.6222 5.37681 21.3156 11.0479 21.3156Z" stroke="#2E384D" stroke-width="1.5" stroke-miterlimit="10"/>
<path d="M11.8297 11.8313H15.2519C15.7408 11.8313 16.1319 11.4402 16.1319 10.9513C16.1319 10.4624 15.7408 10.0713 15.2519 10.0713H11.8297H10.1675H6.74523C6.25635 10.0713 5.86523 10.4624 5.86523 10.9513C5.86523 11.4402 6.25635 11.8313 6.74523 11.8313H10.1675H11.8297Z" fill="#2E384D"/>
</g>
<defs>
<clipPath id="clip0">
<rect width="22" height="22" fill="white"/>
</clipPath>
</defs>
</svg>
