<svg width="23" height="26" viewBox="0 0 23 26" fill="none" xmlns="http://www.w3.org/2000/svg">
<path d="M21.7 19.1C20 17.7 19 15.7 19 13.5V10.4C19 6.4 15.9 3 12 2.6V0.9C12 0.4 11.6 0 11.1 0C10.6 0 10.2 0.4 10.2 0.9V2.6C6.3 3 3.2 6.4 3.2 10.4V13.5C3.2 15.7 2.2 17.8 0.6 19.2C0.3 19.5 0 20.1 0 20.7C0 21.8 0.9 22.7 2 22.7H7.1C7.5 24.6 9.2 26 11.2 26C13.2 26 14.9 24.6 15.3 22.7H20.4C21.5 22.7 22.4 21.8 22.4 20.7C22.4 20.1 22.1 19.5 21.7 19.1ZM11.2 24.2C10.2 24.2 9.3 23.5 8.9 22.6H13.5C13.1 23.6 12.2 24.2 11.2 24.2ZM20.5 20.5C20.5 20.5 20.6 20.6 20.6 20.7C20.6 20.8 20.5 20.9 20.4 20.9H2C1.9 20.9 1.8 20.8 1.8 20.7C1.8 20.6 1.8 20.6 1.9 20.5C4 18.7 5.2 16.2 5.2 13.5V10.4C5.2 7 7.9 4.3 11.3 4.3C14.7 4.3 17.4 7 17.4 10.4V13.5C17.3 16.2 18.5 18.7 20.5 20.5Z" fill="white"/>
</svg>
