<svg width="188" height="135" viewBox="0 0 188 135" fill="none" xmlns="http://www.w3.org/2000/svg">
<g clip-path="url(#clip0)">
<path d="M11 1H177C182.5 1 187 5.5 187 11V123.9C187 129.4 182.5 133.9 177 133.9H11C5.5 133.9 1 129.4 1 123.9V11C1 5.5 5.5 1 11 1Z" fill="white" stroke="#721B65" stroke-width="2"/>
<path d="M11.2 1H176.9C182.5 1 187.1 5.6 187.1 11.2V34H1V11.2C1 5.6 5.6 1 11.2 1Z" fill="#721B65"/>
<path d="M12.6001 82.1001H71.3001C71.9001 82.1001 72.3001 82.6001 72.3001 83.1001C72.3001 83.7001 71.8001 84.1001 71.3001 84.1001H12.6001C12.0001 84.1001 11.6001 83.6001 11.6001 83.1001C11.6001 82.6001 12.0001 82.1001 12.6001 82.1001Z" fill="#CFCBCF"/>
<path d="M12.6001 89.2002H44.3001C44.9001 89.2002 45.3001 89.7002 45.3001 90.2002C45.3001 90.8002 44.8001 91.2002 44.3001 91.2002H12.6001C12.0001 91.2002 11.6001 90.7002 11.6001 90.2002C11.6001 89.6002 12.0001 89.2002 12.6001 89.2002Z" fill="#CFCBCF"/>
<path d="M12.6001 44.3999H71.3001C71.9001 44.3999 72.3001 44.8999 72.3001 45.3999C72.3001 45.9999 71.8001 46.3999 71.3001 46.3999H12.6001C12.0001 46.3999 11.6001 45.8999 11.6001 45.3999C11.6001 44.8999 12.0001 44.3999 12.6001 44.3999Z" fill="#CFCBCF"/>
<path d="M12.6001 73.8999H56.3001C56.9001 73.8999 57.3001 74.3999 57.3001 74.8999C57.3001 75.4999 56.8001 75.8999 56.3001 75.8999H12.6001C12.0001 75.8999 11.6001 75.3999 11.6001 74.8999C11.6001 74.3999 12.0001 73.8999 12.6001 73.8999Z" fill="#CFCBCF"/>
<path d="M12.6001 54H59.3001C59.9001 54 60.3001 54.5 60.3001 55C60.3001 55.6 59.8001 56 59.3001 56H12.6001C12.0001 56 11.6001 55.5 11.6001 55C11.6001 54.5 12.0001 54 12.6001 54Z" fill="#CFCBCF"/>
<path d="M12.6001 118.3H48.2001C48.8001 118.3 49.2001 118.8 49.2001 119.3C49.2001 119.9 48.7001 120.3 48.2001 120.3H12.6001C12.0001 120.3 11.6001 119.8 11.6001 119.3C11.6001 118.7 12.0001 118.3 12.6001 118.3Z" fill="#CFCBCF"/>
<path d="M150 123.7C161.5 123.7 170.9 114.3 170.9 102.8C170.9 91.2999 161.5 81.8999 150 81.8999C138.5 81.8999 129.1 91.2999 129.1 102.8C129.1 114.4 138.4 123.7 150 123.7Z" fill="#DEE3ED"/>
<path d="M152 112.7H147.9V115.1H152V112.7Z" fill="#F8BB94"/>
<path d="M148.1 114.6C148.6 114.1 149.2 113.9 149.9 113.8C150.5 113.8 151.5 113.9 151.8 113.3C151.8 113.2 151.9 113.1 152 113.1V112.8H147.9V114.9C147.9 114.7 148 114.6 148.1 114.6Z" fill="#F0A778"/>
<path d="M158.3 106.7C159.3 106.7 160.2 105.9 160.2 104.9C160.2 103.9 159.3 103.1 158.3 103.1C157.3 103.1 156.4 103.9 156.4 104.9C156.4 105.9 157.2 106.7 158.3 106.7Z" fill="#F8BB94"/>
<path d="M158.6 103.9C158.6 103.9 158.6 103.9 158.7 103.9C158.8 103.9 158.9 103.9 159 104C159.1 104 159.3 104.1 159.4 104.3C159.4 104.3 159.4 104.4 159.5 104.4V104.5V104.6V104.7C159.5 104.8 159.5 104.9 159.4 105C159.4 105.1 159.3 105.2 159.3 105.2C159.2 105.4 159.1 105.5 159 105.5C158.9 105.5 158.9 105.6 158.8 105.6C158.7 105.6 158.7 105.6 158.7 105.6C158.6 105.6 158.6 105.6 158.6 105.6C158.6 105.6 158.6 105.6 158.7 105.6C158.7 105.6 158.8 105.6 158.8 105.5L158.9 105.4L159 105.3C159 105.2 159.1 105.2 159.1 105.1C159.1 105 159.2 105 159.2 104.9C159.2 104.8 159.2 104.8 159.2 104.7V104.6V104.5V104.4V104.3C159.1 104.2 159 104.1 158.9 104C158.8 104 158.7 104 158.6 103.9Z" fill="#DADADA"/>
<path d="M158.5 105.3C158.7 105.3 158.8 105.1 158.8 105C158.8 104.9 158.7 104.7 158.5 104.7C158.3 104.7 158.2 104.9 158.2 105C158.2 105.1 158.3 105.3 158.5 105.3Z" fill="#DADADA"/>
<path d="M141.8 106.7C142.8 106.7 143.7 105.9 143.7 104.9C143.7 103.9 142.8 103.1 141.8 103.1C140.8 103.1 139.9 103.9 139.9 104.9C139.9 105.9 140.8 106.7 141.8 106.7Z" fill="#F8BB94"/>
<path d="M141.6 103.9C141.6 103.9 141.6 103.9 141.5 103.9C141.4 103.9 141.3 103.9 141.2 104C141.1 104 140.9 104.1 140.8 104.3C140.8 104.3 140.8 104.4 140.7 104.4V104.5V104.6V104.7C140.7 104.8 140.7 104.9 140.8 105C140.8 105.1 140.9 105.2 140.9 105.2C141 105.4 141.1 105.5 141.2 105.5C141.3 105.5 141.3 105.6 141.4 105.6C141.5 105.6 141.5 105.6 141.5 105.6C141.6 105.6 141.6 105.6 141.6 105.6C141.6 105.6 141.6 105.6 141.5 105.6C141.5 105.6 141.4 105.6 141.4 105.5L141.3 105.4L141.2 105.3C141.2 105.2 141.1 105.2 141.1 105.1C141.1 105 141 105 141 104.9C141 104.8 141 104.8 141 104.7V104.6V104.5V104.4V104.3C141.1 104.2 141.2 104.1 141.3 104C141.4 104 141.5 104 141.6 103.9C141.5 103.9 141.6 103.9 141.6 103.9Z" fill="#DADADA"/>
<path d="M141.6 105.3C141.8 105.3 141.9 105.1 141.9 105C141.9 104.9 141.8 104.7 141.6 104.7C141.4 104.7 141.3 104.9 141.3 105C141.3 105.1 141.5 105.3 141.6 105.3Z" fill="#DADADA"/>
<path d="M158.3 102.5C158.3 108.7 155.4 113.1 149.9 113.1C144.4 113.1 141.5 108.8 141.5 102.5C141.5 96.2998 144.5 91.2998 150 91.2998C155.5 91.1998 158.3 96.2998 158.3 102.5Z" fill="#F8BB94"/>
<path d="M148 115C148 115 142.8 115.7 140.9 117.3C139 119 138.4 120.4 137.7 123.6H149.8H150H162.1C161.4 120.3 160.9 118.9 158.9 117.3C157 115.7 151.8 115 151.8 115H148Z" fill="#F8BB94"/>
<path d="M153.9 115.4C153.9 115.4 157.1 115.7 159 117.4C160.9 119.1 161.5 120.5 162.2 123.7H150H149.8H137.7C138.4 120.4 138.9 119 140.9 117.4C142.8 115.8 146 115.4 146 115.4C146 115.4 145.3 119.8 150.1 119.8C150.1 119.8 154.1 120 153.9 115.4Z" fill="#721B65"/>
<path d="M146.6 115.3C146.6 115.4 146.6 115.4 146.6 115.5C146.6 115.5 146.4 117.1 147.3 118.2C147.9 118.9 148.8 119.2 150.1 119.2C150.1 119.2 151.4 119.2 152.4 118.3C153 117.7 153.3 116.6 153.3 115.3L154.6 115.5C154.6 117.1 154.2 118.3 153.3 119.2C152.1 120.4 150.5 120.5 150.1 120.5C150 120.5 150 120.5 150 120.5C148.3 120.5 147.1 120 146.3 119.1C145.2 117.8 145.2 116.2 145.3 115.6L146.6 115.3Z" fill="#FFD868"/>
<path d="M141.6 103.4L142.5 104.3L142.7 97.3999C142.7 97.3999 142.8 93.8999 146.5 93.8999C146.5 93.8999 149.6 95.4999 153.5 94.1999C153.5 94.1999 157 93.5999 157.5 97.2999V104.4L158.4 103.3V102.4C158.4 102.4 158.9 99.3999 158.4 94.8999C158.4 94.8999 157.7 89.9999 153.3 89.1999C153.3 89.1999 146.1 87.2999 143 91.8999C143 91.8999 140.7 94.5999 141.3 98.8999L141.6 103.4Z" fill="#732400"/>
<path d="M12.6001 107.1H71.3001C71.9001 107.1 72.3001 107.6 72.3001 108.1C72.3001 108.7 71.8001 109.1 71.3001 109.1H12.6001C12.0001 109.1 11.6001 108.6 11.6001 108.1C11.6001 107.6 12.0001 107.1 12.6001 107.1Z" fill="#CFCBCF"/>
<path d="M165.1 71.2998H136C134.3 71.2998 133 69.9998 133 68.2998V45.2998C133 43.5998 134.3 42.2998 136 42.2998H165.1C166.8 42.2998 168.1 43.5998 168.1 45.2998V68.2998C168.1 69.8998 166.8 71.2998 165.1 71.2998Z" stroke="#CFCBCF" stroke-miterlimit="10"/>
<path d="M174.7 15.3001H117.4C116.5 15.3001 115.8 14.6001 115.8 13.7001C115.8 12.8001 116.5 12.1001 117.4 12.1001H174.7C175.6 12.1001 176.3 12.8001 176.3 13.7001C176.3 14.5001 175.5 15.3001 174.7 15.3001Z" fill="#FFD868"/>
<path d="M151.2 24.3001H117.2C116.3 24.3001 115.6 23.6001 115.6 22.7001C115.6 21.8001 116.3 21.1001 117.2 21.1001H151.2C152.1 21.1001 152.8 21.8001 152.8 22.7001C152.8 23.6001 152 24.3001 151.2 24.3001Z" fill="white"/>
<path d="M70.7 15.3001H13.4C12.5 15.3001 11.8 14.6001 11.8 13.7001C11.8 12.8001 12.5 12.1001 13.4 12.1001H70.7C71.6 12.1001 72.3001 12.8001 72.3001 13.7001C72.3001 14.6001 71.6 15.3001 70.7 15.3001Z" fill="#FFD868"/>
<path d="M47.2001 24.4002H13.2001C12.3001 24.4002 11.6001 23.7002 11.6001 22.8002C11.6001 21.9002 12.3001 21.2002 13.2001 21.2002H47.2001C48.1001 21.2002 48.8001 21.9002 48.8001 22.8002C48.8001 23.7002 48.1001 24.4002 47.2001 24.4002Z" fill="white"/>
<path d="M133.7 43.2998L167.2 69.7998" stroke="#CFCBCF" stroke-miterlimit="10"/>
<path d="M167.1 43L133.7 70.1" stroke="#CFCBCF" stroke-miterlimit="10"/>
</g>
<defs>
<clipPath id="clip0">
<rect width="188" height="134.9" fill="white"/>
</clipPath>
</defs>
</svg>
