<svg width="22" height="22" viewBox="0 0 22 22" fill="none" xmlns="http://www.w3.org/2000/svg">
<path d="M11 22C17.0751 22 22 17.0751 22 11C22 4.92487 17.0751 0 11 0C4.92487 0 0 4.92487 0 11C0 17.0751 4.92487 22 11 22Z" fill="#2E384D"/>
<path d="M15.6 10.1H11.9V6.4C11.9 5.9 11.5 5.5 11 5.5C10.5 5.5 10.1 5.9 10.1 6.4V10.1H6.4C5.9 10.1 5.5 10.5 5.5 11C5.5 11.5 5.9 11.9 6.4 11.9H10.1V15.6C10.1 16.1 10.5 16.5 11 16.5C11.5 16.5 11.9 16.1 11.9 15.6V11.9H15.6C16.1 11.9 16.5 11.5 16.5 11C16.5 10.5 16.1 10.1 15.6 10.1Z" fill="white"/>
</svg>
