<svg width="221" height="144" viewBox="0 0 221 144" fill="none" xmlns="http://www.w3.org/2000/svg">
<rect x="31.0847" y="2" width="187.049" height="132.871" rx="6" fill="white" stroke="#DEE3ED" stroke-width="4"/>
<path d="M29.0847 15C29.0847 6.71573 35.8004 0 44.0847 0H205.134C213.418 0 220.134 6.71573 220.134 15V17.9644H29.0847V15Z" fill="#DEE3ED"/>
<circle cx="37.0693" cy="9.12495" r="1.71089" fill="#B4BCCB"/>
<circle cx="43.9128" cy="9.12495" r="1.71089" fill="#B4BCCB"/>
<circle cx="50.7561" cy="9.12495" r="1.71089" fill="#B4BCCB"/>
<path d="M166.812 75.5645H82.6928C81.9054 75.5645 81.2671 76.2028 81.2671 76.9902C81.2671 77.7776 81.9054 78.4159 82.6928 78.4159H166.812C167.599 78.4159 168.237 77.7776 168.237 76.9902C168.237 76.2028 167.599 75.5645 166.812 75.5645Z" fill="#FFD868"/>
<path d="M127.746 84.1191H82.6928C81.9054 84.1191 81.2671 84.7575 81.2671 85.5449C81.2671 86.3323 81.9054 86.9706 82.6928 86.9706H127.746C128.534 86.9706 129.172 86.3323 129.172 85.5449C129.172 84.7575 128.534 84.1191 127.746 84.1191Z" fill="#CFCBCF"/>
<path d="M127.746 89.8218H82.6928C81.9054 89.8218 81.2671 90.4601 81.2671 91.2475C81.2671 92.0349 81.9054 92.6733 82.6928 92.6733H127.746C128.534 92.6733 129.172 92.0349 129.172 91.2475C129.172 90.4601 128.534 89.8218 127.746 89.8218Z" fill="#CFCBCF"/>
<path d="M124.61 66.1546C135.949 66.1546 145.14 56.9627 145.14 45.624C145.14 34.2852 135.949 25.0933 124.61 25.0933C113.271 25.0933 104.079 34.2852 104.079 45.624C104.079 56.9627 113.271 66.1546 124.61 66.1546Z" fill="#DEE3ED"/>
<path d="M126.591 55.3164H122.561V57.7134H126.591V55.3164Z" fill="#F8BB94"/>
<path d="M122.804 57.1228C123.29 56.6365 123.881 56.3933 124.576 56.3238C125.166 56.2891 126.139 56.3933 126.452 55.8028C126.486 55.6985 126.556 55.6291 126.625 55.5943V55.3164H122.561V57.4007C122.63 57.2965 122.734 57.1923 122.804 57.1228Z" fill="#F0A778"/>
<path d="M132.843 49.4107C133.879 49.4107 134.719 48.6019 134.719 47.6043C134.719 46.6066 133.879 45.7979 132.843 45.7979C131.807 45.7979 130.968 46.6066 130.968 47.6043C130.968 48.6019 131.807 49.4107 132.843 49.4107Z" fill="#F8BB94"/>
<path d="M133.087 46.6313C133.087 46.6313 133.122 46.6313 133.226 46.6313C133.296 46.6313 133.435 46.6313 133.539 46.7008C133.678 46.7356 133.817 46.8398 133.921 47.0135C133.956 47.0482 133.956 47.083 133.99 47.1524C133.99 47.1872 134.025 47.2566 134.025 47.2914V47.4303C134.025 47.4651 134.025 47.5346 134.025 47.5693C134.025 47.6735 133.99 47.743 133.956 47.8472C133.921 47.9514 133.886 48.0209 133.851 48.0904C133.747 48.2641 133.643 48.3683 133.504 48.4378C133.435 48.4725 133.365 48.5072 133.33 48.5072C133.261 48.5072 133.226 48.542 133.191 48.542C133.122 48.542 133.052 48.542 133.052 48.542C133.052 48.542 133.087 48.542 133.157 48.5072C133.191 48.5072 133.226 48.4725 133.261 48.4378C133.296 48.403 133.365 48.3683 133.4 48.3336C133.435 48.2988 133.504 48.2293 133.539 48.1946C133.574 48.1251 133.608 48.0904 133.643 48.0209C133.678 47.9514 133.713 47.8819 133.713 47.8125C133.747 47.743 133.747 47.6735 133.747 47.5693V47.4651V47.3609C133.747 47.3261 133.747 47.2914 133.713 47.2566C133.713 47.2219 133.678 47.1872 133.678 47.1524C133.608 47.0135 133.504 46.944 133.4 46.8745C133.296 46.805 133.191 46.7703 133.122 46.7356C133.122 46.6313 133.087 46.6313 133.087 46.6313Z" fill="#DADADA"/>
<path d="M133.017 48.0556C133.19 48.0556 133.33 47.9001 133.33 47.7082C133.33 47.5164 133.19 47.3608 133.017 47.3608C132.845 47.3608 132.705 47.5164 132.705 47.7082C132.705 47.9001 132.845 48.0556 133.017 48.0556Z" fill="#DADADA"/>
<path d="M116.62 49.4107C117.656 49.4107 118.496 48.6019 118.496 47.6043C118.496 46.6066 117.656 45.7979 116.62 45.7979C115.584 45.7979 114.744 46.6066 114.744 47.6043C114.744 48.6019 115.584 49.4107 116.62 49.4107Z" fill="#F8BB94"/>
<path d="M116.377 46.6313C116.377 46.6313 116.342 46.6313 116.238 46.6313C116.168 46.6313 116.03 46.6313 115.925 46.7008C115.786 46.7356 115.647 46.8398 115.543 47.0135C115.508 47.0482 115.508 47.083 115.474 47.1524C115.474 47.1872 115.439 47.2566 115.439 47.2914V47.4303C115.439 47.4651 115.439 47.5346 115.439 47.5693C115.439 47.6735 115.474 47.743 115.508 47.8472C115.543 47.9514 115.578 48.0209 115.613 48.0904C115.717 48.2641 115.821 48.3683 115.96 48.4378C116.03 48.4725 116.099 48.5072 116.134 48.5072C116.203 48.5072 116.238 48.542 116.273 48.542C116.342 48.542 116.412 48.542 116.412 48.542C116.412 48.542 116.377 48.542 116.307 48.5072C116.273 48.5072 116.238 48.4725 116.203 48.4378C116.168 48.403 116.099 48.3683 116.064 48.3336C116.03 48.2988 115.96 48.2293 115.925 48.1946C115.891 48.1251 115.856 48.0904 115.821 48.0209C115.786 47.9514 115.752 47.8819 115.752 47.8125C115.717 47.743 115.717 47.6735 115.717 47.5693V47.4651V47.3609C115.717 47.3261 115.752 47.2914 115.752 47.2566C115.752 47.2219 115.786 47.1872 115.786 47.1524C115.856 47.0135 115.96 46.944 116.064 46.8745C116.168 46.805 116.273 46.7703 116.342 46.7356C116.307 46.6313 116.377 46.6313 116.377 46.6313Z" fill="#DADADA"/>
<path d="M116.446 48.0556C116.619 48.0556 116.759 47.9001 116.759 47.7082C116.759 47.5164 116.619 47.3608 116.446 47.3608C116.274 47.3608 116.134 47.5164 116.134 47.7082C116.134 47.9001 116.274 48.0556 116.446 48.0556Z" fill="#DADADA"/>
<path d="M132.844 45.2418C132.844 51.3558 129.995 55.6287 124.611 55.6287C119.226 55.6287 116.377 51.3558 116.377 45.2418C116.377 39.1277 119.365 34.1948 124.715 34.1948C130.099 34.1948 132.844 39.1625 132.844 45.2418Z" fill="#F8BB94"/>
<path d="M122.665 57.6089C122.665 57.6089 117.559 58.2689 115.717 59.8669C113.842 61.4996 113.286 62.8892 112.626 66.0852H124.541H124.715H136.63C135.97 62.8892 135.414 61.4649 133.539 59.8669C131.697 58.2689 126.591 57.6089 126.591 57.6089H122.665Z" fill="#F8BB94"/>
<path d="M128.501 57.9912C128.501 57.9912 131.628 58.3039 133.469 59.9019C135.345 61.5346 135.901 62.9241 136.561 66.1201H124.68H124.506H112.591C113.251 62.9241 113.807 61.4998 115.683 59.9019C117.524 58.3039 120.685 57.9912 120.685 57.9912C120.685 57.9912 119.99 62.3683 124.749 62.3336C124.784 62.2988 128.71 62.4725 128.501 57.9912Z" fill="#721B65"/>
<path d="M121.345 57.8521C121.345 57.9215 121.345 57.991 121.345 58.0952C121.345 58.13 121.137 59.6932 122.005 60.7006C122.561 61.3607 123.499 61.6733 124.75 61.6733H124.785C124.785 61.6733 126.105 61.7081 127.008 60.8049C127.633 60.1796 127.911 59.1027 127.842 57.8521L129.162 58.0952C129.196 59.6585 128.779 60.8743 127.911 61.7428C126.73 62.9239 125.132 62.9934 124.785 62.9934C124.715 62.9934 124.715 62.9934 124.68 62.9934C123.048 62.9934 121.797 62.5071 120.998 61.5691C119.921 60.3185 119.956 58.6858 119.991 58.0952L121.345 57.8521Z" fill="#FFD868"/>
<path d="M116.412 46.2146L117.246 47.0484L117.419 40.309C117.419 40.309 117.489 36.8351 121.171 36.8351C121.171 36.8351 124.228 38.4331 128.084 37.113C128.084 37.113 131.558 36.5572 131.975 40.1701L131.94 47.1873L132.843 46.1104L132.878 45.2072C132.878 45.2072 133.399 42.2544 132.878 37.8773C132.878 37.8773 132.183 33.0486 127.841 32.2496C127.841 32.2496 120.72 30.4084 117.732 34.8898C117.732 34.8898 115.439 37.5647 116.065 41.7333L116.412 46.2146Z" fill="#732400"/>
<path d="M55.9879 84.4279C53.6375 86.0827 49.1048 87.903 42.3057 86.4136C35.1708 84.9243 31.8132 80.8701 30.2183 78.2225C29.9665 77.8088 29.5468 77.5605 29.0432 77.5605C28.6235 77.5605 28.2038 77.8088 27.952 78.2225C27.7001 78.7189 27.2804 79.2981 26.8607 79.8772C26.2732 80.6219 25.6016 81.4493 24.6783 82.1939C24.2586 82.6076 23.755 82.9386 23.2513 83.3523C21.4047 84.6761 18.9704 85.8345 15.8646 86.4964C14.6055 86.7446 13.3464 86.9101 12.2552 86.9928C11.9195 86.9928 11.4998 86.9928 11.164 86.9928C10.4925 86.9928 9.82096 86.9928 9.23338 86.9101C8.56186 86.8273 7.97428 86.7446 7.3867 86.6619C6.79913 86.5791 6.29549 86.4136 5.79185 86.2482C5.03639 85.9999 4.36487 85.7517 3.77729 85.4208C3.52547 85.2553 3.35759 85.1726 3.18971 85.0898C2.77001 84.8416 2.43425 84.6761 2.18244 84.4279C1.93062 84.2624 1.6788 84.2624 1.42698 84.1797C1.17516 84.1797 0.923338 84.2624 0.755458 84.3452C0.503639 84.5106 0.335759 84.6761 0.16788 84.8416C0.0839398 85.0898 0 85.338 0 85.5863C0 86.2482 0 87.0756 0 87.903C0 88.4821 0 89.144 0.0839398 89.806C0.0839398 90.7988 0.16788 91.8744 0.251819 92.95C0.503639 97.087 0.923338 101.969 1.84668 106.933C1.93062 107.347 2.01456 107.843 2.0985 108.257C2.93789 112.807 4.19699 117.275 5.95973 121.081C6.29549 121.826 6.71519 122.571 7.05094 123.315C8.6458 126.128 10.1567 128.611 11.6676 130.762C12.4231 131.837 13.2625 132.83 14.018 133.74C15.6128 135.561 17.3755 137.216 19.2222 138.622C20.1456 139.367 21.1528 139.946 22.1601 140.608C23.1674 141.27 24.2586 141.849 25.4338 142.345C26.6089 142.925 27.7841 143.421 29.0432 144C34.1635 141.932 38.1087 139.615 41.5502 136.388C44.9917 133.161 48.0136 129.024 51.1194 123.315C57.3309 111.897 58.0864 92.95 58.1703 85.5863C58.1703 84.5106 56.9112 83.8487 55.9879 84.4279Z" fill="#721B65"/>
<path d="M29.1268 139.781C28.4553 139.532 27.8677 139.202 27.2801 138.871C26.1889 138.374 25.2656 137.795 24.3422 137.299C23.4189 136.719 22.5795 136.14 21.7401 135.561C20.0613 134.32 18.5504 132.913 17.1234 131.259C16.368 130.431 15.6964 129.521 14.941 128.528C13.514 126.542 12.087 124.226 10.5761 121.495C10.2404 120.916 9.9046 120.171 9.56884 119.51C8.05792 116.283 6.88276 112.311 5.95942 107.595C5.87548 107.181 5.79154 106.768 5.70761 106.271C5.03609 102.134 4.44851 97.5837 4.19669 92.7848C4.11275 91.7092 4.11275 90.7163 4.02881 89.7235C4.19669 89.8062 4.36457 89.8062 4.53245 89.8889C5.20397 90.1372 5.87548 90.3026 6.547 90.3854C7.30246 90.5509 8.05792 90.6336 8.89732 90.7163C9.65278 90.7991 10.3243 90.7991 11.0798 90.7991H11.2476C11.6673 90.7991 12.087 90.7991 12.5907 90.7163C13.9337 90.6336 15.3607 90.4681 16.7877 90.1372C20.1453 89.3925 23.0831 88.1514 25.6013 86.4139C26.1889 86.0002 26.8604 85.5038 27.3641 85.0073C27.9517 84.5109 28.5392 83.9317 29.1268 83.3525C31.4771 86.0002 35.3384 88.9788 41.466 90.3026C43.3966 90.7163 45.3272 90.9645 47.1739 90.9645C49.9439 90.9645 52.2942 90.4681 54.1409 89.8062C53.8051 97.9146 52.546 112.559 47.6775 121.578C44.6557 127.039 41.9696 130.762 38.9478 133.658C36.2617 136.057 33.1559 137.96 29.1268 139.781Z" fill="#721B65"/>
<path d="M34.2473 106.023C34.2473 103.044 31.7291 100.562 28.7073 100.562C25.6854 100.562 23.1672 103.044 23.1672 106.023C23.1672 108.34 24.6782 110.325 26.7767 111.153L24.846 118.599C24.7621 118.93 25.0139 119.261 25.3497 119.261H28.7073H32.0649C32.4006 119.261 32.6524 118.93 32.5685 118.599L30.6379 111.153C32.7364 110.408 34.2473 108.422 34.2473 106.023Z" fill="#FFD868"/>
<path d="M79.8235 117.713C79.2629 117.713 78.8066 117.256 78.8066 116.694V101.214C78.8066 100.652 79.2629 100.194 79.8235 100.194H169.165C169.726 100.194 170.182 100.652 170.182 101.214V116.68C170.182 117.243 169.726 117.7 169.165 117.7H79.8235V117.713Z" fill="white"/>
<path d="M169.178 100.586C169.53 100.586 169.804 100.874 169.804 101.214V116.68C169.804 117.033 169.517 117.308 169.178 117.308H79.8233C79.4713 117.308 79.1975 117.02 79.1975 116.68V101.214C79.1975 100.874 79.4843 100.586 79.8233 100.586H169.178ZM169.178 99.8018H79.8233C79.0541 99.8018 78.4153 100.442 78.4153 101.214V116.68C78.4153 117.465 79.0541 118.092 79.8233 118.092H169.165C169.947 118.092 170.573 117.451 170.573 116.68V101.214C170.586 100.442 169.947 99.8018 169.178 99.8018Z" fill="#CFCBCF"/>
<path d="M92.0027 108.955L93.47 109.733L92.415 111.46L90.9114 110.535L90.9599 112.177H88.8984L88.9469 110.535L87.4433 111.46L86.4004 109.733L87.8798 108.955L86.4125 108.176L87.4554 106.449L88.9469 107.374L88.8984 105.732H90.9477L90.9114 107.374L92.415 106.449L93.47 108.176L92.0027 108.955Z" fill="#CFCBCF"/>
<path d="M103.523 108.954L104.99 109.732L103.935 111.459L102.431 110.534L102.48 112.176H100.431L100.479 110.534L98.9755 111.459L97.9326 109.732L99.3999 108.954L97.9326 108.175L98.9755 106.448L100.479 107.373L100.431 105.731H102.48L102.431 107.373L103.935 106.448L104.99 108.175L103.523 108.954Z" fill="#CFCBCF"/>
<path d="M115.043 108.954L116.51 109.732L115.455 111.459L113.951 110.534L114 112.176H111.951L111.999 110.534L110.495 111.459L109.453 109.732L110.92 108.954L109.453 108.175L110.495 106.448L111.999 107.373L111.951 105.731H114L113.951 107.373L115.455 106.448L116.51 108.175L115.043 108.954Z" fill="#CFCBCF"/>
<path d="M126.563 108.954L128.03 109.732L126.975 111.459L125.471 110.534L125.52 112.176H123.47L123.519 110.534L122.015 111.459L120.972 109.732L122.44 108.954L120.972 108.175L122.015 106.448L123.519 107.373L123.47 105.731H125.52L125.471 107.373L126.975 106.448L128.03 108.175L126.563 108.954Z" fill="#CFCBCF"/>
<path d="M138.083 108.954L139.55 109.732L138.495 111.459L136.991 110.534L137.04 112.176H134.99L135.039 110.534L133.535 111.459L132.492 109.732L133.96 108.954L132.492 108.175L133.535 106.448L135.039 107.373L134.99 105.731H137.04L136.991 107.373L138.495 106.448L139.55 108.175L138.083 108.954Z" fill="#CFCBCF"/>
<path d="M149.602 108.954L151.07 109.732L150.015 111.459L148.511 110.534L148.56 112.176H146.51L146.559 110.534L145.055 111.459L144.012 109.732L145.479 108.954L144.012 108.175L145.055 106.448L146.559 107.373L146.51 105.731H148.56L148.511 107.373L150.015 106.448L151.07 108.175L149.602 108.954Z" fill="#CFCBCF"/>
<path d="M161.122 108.954L162.59 109.732L161.535 111.459L160.031 110.534L160.08 112.176H158.03L158.079 110.534L156.575 111.459L155.532 109.732L157 108.954L155.532 108.175L156.575 106.448L158.079 107.373L158.03 105.731H160.08L160.031 107.373L161.535 106.448L162.59 108.175L161.122 108.954Z" fill="#CFCBCF"/>
</svg>
