<svg width="16" height="16" viewBox="0 0 16 16" fill="none" xmlns="http://www.w3.org/2000/svg">
<path d="M15.8189 14.7925L13.2226 12.1962C14.3094 10.8679 14.9132 9.17736 14.9132 7.48679C14.9132 5.49434 14.1283 3.62264 12.7396 2.23396C11.2906 0.784906 9.41887 0 7.42641 0C3.32075 0 0 3.32076 0 7.42642C0 11.5321 3.32075 14.8528 7.42641 14.8528C9.17736 14.8528 10.8075 14.2491 12.1358 13.1623L14.7321 15.7585C14.8528 15.8792 15.034 15.9396 15.2151 15.9396C15.6377 15.9396 15.9396 15.6377 15.9396 15.2151C16 15.0943 15.9396 14.9132 15.8189 14.7925ZM13.4641 7.42642C13.4641 10.7472 10.7472 13.4642 7.42641 13.4642C4.10566 13.4642 1.38868 10.7472 1.38868 7.42642C1.38868 4.10566 4.10566 1.38868 7.42641 1.38868C10.7472 1.44906 13.4641 4.10566 13.4641 7.42642Z" fill="#605260"/>
</svg>
