<svg width="26" height="26" viewBox="0 0 26 26" fill="none" xmlns="http://www.w3.org/2000/svg">
<path d="M26 13C26 20.15 20.15 26 13 26C5.85 26 0 20.15 0 13C0 5.85 5.85 0 13 0C20.15 0 26 5.85 26 13Z" fill="#00CC83"/>
<path d="M18.0701 9.48992C18.3301 9.74992 18.3301 10.2699 18.0701 10.5299L12.0901 16.5099C11.9601 16.6399 11.7001 16.7699 11.5701 16.7699C11.4401 16.7699 11.1801 16.6399 11.0501 16.5099L7.93011 13.3899C7.67011 13.1299 7.67011 12.6099 7.93011 12.3499C8.19011 12.0899 8.71011 12.0899 8.97011 12.3499L11.5701 14.9499L17.0301 9.48992C17.2901 9.22992 17.8101 9.22992 18.0701 9.48992Z" fill="white"/>
</svg>
