<svg width="16" height="16" viewBox="0 0 16 16" fill="none" xmlns="http://www.w3.org/2000/svg">
<path d="M16 8C16 12.4 12.4 16 8 16C3.6 16 0 12.4 0 8C0 3.6 3.6 0 8 0C12.4 0 16 3.6 16 8Z" fill="#00CC83"/>
<path d="M11.1203 5.84003C11.2803 6.00003 11.2803 6.32003 11.1203 6.48003L7.44025 10.16C7.36025 10.24 7.20025 10.32 7.12025 10.32C7.04025 10.32 6.88025 10.24 6.80025 10.16L4.88025 8.24003C4.72025 8.08003 4.72025 7.76003 4.88025 7.60003C5.04025 7.44003 5.36025 7.44003 5.52025 7.60003L7.12025 9.20003L10.4803 5.84003C10.6403 5.68003 10.9603 5.68003 11.1203 5.84003Z" fill="white"/>
</svg>
