<svg width="69" height="62" viewBox="0 0 69 62" fill="none" xmlns="http://www.w3.org/2000/svg">
<g clip-path="url(#clip0)">
<path d="M23.6999 7.2999H55.6999V4.3999C55.6999 3.5999 54.9999 2.8999 54.1999 2.8999H16.3999C15.5999 2.8999 14.8999 3.5999 14.8999 4.3999V48.8999C14.8999 50.4999 14.3999 52.0999 13.3999 53.3999H20.7999V10.2999C20.7999 8.5999 22.0999 7.2999 23.6999 7.2999Z" fill="#F1E8F0"/>
<path d="M23.3999 16.1001H31.3999C32.1999 16.1001 32.8999 15.4001 32.8999 14.6001C32.8999 13.8001 32.1999 13.1001 31.3999 13.1001H23.3999C22.5999 13.1001 21.8999 13.8001 21.8999 14.6001C21.8999 15.4001 22.5999 16.1001 23.3999 16.1001Z" fill="#721B65"/>
<path d="M23.3999 28.6001H46.1999C46.9999 28.6001 47.6999 27.9001 47.6999 27.1001C47.6999 26.3001 46.9999 25.6001 46.1999 25.6001H23.3999C22.5999 25.6001 21.8999 26.3001 21.8999 27.1001C21.8999 28.0001 22.5999 28.6001 23.3999 28.6001Z" fill="#721B65"/>
<path d="M47.5999 38.3C47.5999 37.5 46.8999 36.8 46.0999 36.8H23.3999C22.5999 36.8 21.8999 37.5 21.8999 38.3C21.8999 39.1 22.5999 39.8 23.3999 39.8H46.1999C46.8999 39.8 47.5999 39.1 47.5999 38.3Z" fill="#721B65"/>
<path d="M58.7 37.4V4.4C58.7 2 56.7 0 54.3 0H16.4C14 0 12 2 12 4.4V31.3H7.3C3.3 31.3 0 34.6 0 38.6V48.8C0 52.9 3.3 56.3 7.5 56.3H45.1C47.3 59.7 51.2 62 55.6 62C62.5 62 68.1 56.4 68.1 49.5C68.1 43.7 64.1 38.8 58.7 37.4ZM2.9 48.9V38.6C2.9 36.2 4.9 34.2 7.3 34.2H12V48.8C12 51.3 10 53.3 7.5 53.3C5 53.3 2.9 51.4 2.9 48.9ZM43.7 53.4H20.8H13.4C14.4 52.1 14.9 50.5 14.9 48.9V4.4C14.9 3.6 15.6 2.9 16.4 2.9H54.3C55.1 2.9 55.8 3.6 55.8 4.4V7.3V37C55.7 37 55.7 37 55.6 37C48.6 37 43 42.6 43 49.5C43 50.9 43.3 52.2 43.7 53.4ZM55.5 59.3C52.7 59.3 50.2 58.1 48.4 56.3C47.6 55.5 46.9 54.5 46.4 53.4C45.9 52.2 45.6 50.9 45.6 49.5C45.6 44.1 50 39.7 55.4 39.7C55.5 39.7 55.5 39.7 55.6 39.7C56.6 39.7 57.6 39.9 58.5 40.2C62.4 41.5 65.2 45.2 65.2 49.5C65.4 54.9 61 59.3 55.5 59.3Z" fill="#721B65"/>
<path d="M58.5998 46.0001L54.2998 50.3001L52.4998 48.5001C52.2998 48.3001 51.9998 48.1001 51.5998 48.1001C51.2998 48.1001 50.9998 48.2001 50.6998 48.5001C50.4998 48.7001 50.2998 49.0001 50.2998 49.4001C50.2998 49.7001 50.3998 50.0001 50.6998 50.3001L53.2998 52.9001C53.4998 53.1001 53.7998 53.3001 54.1998 53.3001C54.4998 53.3001 54.7998 53.2001 55.0998 52.9001L60.2998 47.7001C60.4998 47.5001 60.6998 47.2001 60.6998 46.8001C60.6998 46.5001 60.5998 46.2001 60.2998 45.9001C59.7998 45.5001 59.0998 45.5001 58.5998 46.0001Z" fill="#721B65"/>
</g>
<defs>
<clipPath id="clip0">
<rect width="68.1" height="62" fill="white"/>
</clipPath>
</defs>
</svg>
