<svg width="152" height="156" viewBox="0 0 152 156" fill="none" xmlns="http://www.w3.org/2000/svg">
<path d="M35.5928 67.9785H118.155V140.339H35.5928V67.9785Z" fill="white"/>
<path d="M67.4033 142.487V107.327H84.8395V142.487H67.4033Z" fill="white" stroke="#FFD868" stroke-width="20"/>
<path d="M117.634 68.2847H137.853V129.8H117.634V68.2847Z" fill="#601054"/>
<path d="M144.533 57.0112V66.263C144.533 67.3659 143.644 68.2543 142.541 68.2543H134.484H114.265H41.3535H21.1343H10.5958C9.49291 68.2543 8.60449 67.3659 8.60449 66.263V57.0112H144.533Z" fill="#721B65"/>
<path d="M112.733 135.437V133.415C112.733 131.424 114.357 129.8 116.348 129.8H138.13C140.121 129.8 141.745 131.424 141.745 133.415V135.437C141.745 137.428 140.121 139.052 138.13 139.052H116.348C114.357 139.052 112.733 137.428 112.733 135.437Z" fill="#601054"/>
<path d="M150.199 144.046V150.173C150.199 152.93 147.963 155.166 145.206 155.166H9.03259C6.27543 155.166 4.03906 152.93 4.03906 150.173V144.046C4.03906 141.289 6.27543 139.052 9.03259 139.052H145.206C147.963 139.052 150.199 141.289 150.199 144.046Z" fill="#721B65"/>
<path d="M15.834 68.2847H36.0532V130.137H15.834V68.2847Z" fill="#721B65"/>
<path d="M10.749 135.437V133.415C10.749 131.424 12.3727 129.8 14.364 129.8H36.1456C38.1368 129.8 39.7605 131.424 39.7605 133.415V135.437C39.7605 137.428 38.1368 139.052 36.1456 139.052H14.364C12.3727 139.052 10.749 137.428 10.749 135.437Z" fill="#721B65"/>
<path d="M18.4386 155.167H9.03357C6.27641 155.167 4.04004 152.93 4.04004 150.173V144.046C4.04004 141.289 6.27641 139.053 9.03357 139.053H18.4386C15.5895 139.053 13.2919 141.35 13.2919 144.199V150.051C13.3225 152.869 15.6201 155.167 18.4386 155.167Z" fill="#601054"/>
<path d="M23.9212 139.052H14.363C12.3717 139.052 10.748 137.428 10.748 135.437V133.415C10.748 131.424 12.3717 129.8 14.363 129.8H23.9212C21.9299 129.8 20.3062 131.424 20.3062 133.415V135.437C20.3062 137.428 21.9299 139.052 23.9212 139.052Z" fill="#601054"/>
<path d="M15.833 68.2852H25.3912V130.138H15.833V68.2852Z" fill="#601054"/>
<path d="M20.151 68.2851H10.5928C9.48998 68.2851 8.60156 67.3967 8.60156 66.2938V57.042H18.1597V66.2938C18.1597 67.366 19.0482 68.2851 20.151 68.2851Z" fill="#601054"/>
<path d="M117.633 68.2852H127.191V129.801H117.633V68.2852Z" fill="#721B65"/>
<path d="M125.904 139.052H116.345C114.354 139.052 112.73 137.428 112.73 135.437V133.415C112.73 131.424 114.354 129.8 116.345 129.8H125.904C123.912 129.8 122.289 131.424 122.289 133.415V135.437C122.289 137.428 123.912 139.052 125.904 139.052Z" fill="#721B65"/>
<path d="M146.246 57.1033H5.75311C0.0243375 57.1033 -2.18139 49.5977 2.65896 46.5035L17.7008 36.9454L19.9985 35.4749L72.9054 1.83748C74.7741 0.642714 77.1943 0.642714 79.063 1.83748L103.755 17.5227L143.305 42.6741L149.309 46.5035C154.18 49.5977 152.005 57.1033 146.246 57.1033Z" fill="#721B65"/>
<path d="M77.0404 47.9129C85.1448 47.9129 91.7147 41.3431 91.7147 33.2387C91.7147 25.1343 85.1448 18.5645 77.0404 18.5645C68.9361 18.5645 62.3662 25.1343 62.3662 33.2387C62.3662 41.3431 68.9361 47.9129 77.0404 47.9129Z" fill="#FFD868"/>
<path d="M81.8195 47.1164C80.3184 47.6372 78.7254 47.9129 77.0404 47.9129C68.9221 47.9129 62.3662 41.357 62.3662 33.2387C62.3662 25.1204 68.9221 18.5645 77.0404 18.5645C78.7254 18.5645 80.3184 18.8402 81.8195 19.361C76.0601 21.3523 71.9244 26.8053 71.9244 33.2387C71.9244 39.6721 76.0601 45.1251 81.8195 47.1164Z" fill="#F9C850"/>
</svg>
