<svg width="26" height="26" viewBox="0 0 26 26" fill="none" xmlns="http://www.w3.org/2000/svg">
<path d="M2.1 15.6C2.5 17.2 3.2 18.7 4.2 20C6.7 18.1 9.8 17.1 13 17.1C16.2 17.1 19.3 18.1 21.8 20C22.8 18.7 23.6 17.3 23.9 15.6C24.1 14.7 24.2 13.9 24.2 13C24.2 6.8 19.2 1.8 13 1.8C6.8 1.8 1.8 6.8 1.8 13C1.8 13.9 1.9 14.8 2.1 15.6ZM20.5 21.3C18.4 19.8 15.8 18.9 13 18.9C10.2 18.9 7.6 19.8 5.5 21.3C7.5 23.1 10.1 24.2 13 24.2C15.9 24.2 18.5 23.1 20.5 21.3ZM13 26C5.8 26 0 20.2 0 13C0 5.8 5.8 0 13 0C20.2 0 26 5.8 26 13C26 20.2 20.2 26 13 26Z" fill="white"/>
<path d="M12.9998 14.2C14.5998 14.2 15.9998 12.9 15.9998 11.2C15.9998 9.5 14.6998 8.2 12.9998 8.2C11.2998 8.2 9.9998 9.5 9.9998 11.2C9.9998 12.9 11.3998 14.2 12.9998 14.2ZM12.9998 16C10.3998 16 8.2998 13.9 8.2998 11.3C8.2998 8.7 10.3998 6.5 12.9998 6.5C15.5998 6.5 17.6998 8.6 17.6998 11.2C17.6998 13.8 15.5998 16 12.9998 16Z" fill="white"/>
</svg>
