<svg width="31" height="26" viewBox="0 0 31 26" fill="none" xmlns="http://www.w3.org/2000/svg">
<g clip-path="url(#clip0)">
<rect x="11.5123" y="6.5" width="8.22311" height="17.875" fill="#2E384D"/>
<path d="M30.2791 21.9632L17.4225 1.30566C16.3411 -0.356443 14.6589 -0.356443 13.6977 1.30566L0.600793 21.9632C-0.841068 24.2189 0.240328 25.9997 2.88374 25.9997H27.9961C30.7597 25.9997 31.7209 24.2189 30.2791 21.9632ZM15.5 22.4381C14.7791 22.4381 14.2985 21.9632 14.2985 21.2509C14.2985 20.5385 14.7791 20.0636 15.5 20.0636C16.2209 20.0636 16.7016 20.5385 16.7016 21.2509C16.7016 21.9632 16.1008 22.4381 15.5 22.4381ZM16.7016 16.502C16.7016 17.0956 16.2209 17.6892 15.5 17.6892C14.7791 17.6892 14.2985 17.2143 14.2985 16.502V9.37872C14.2985 8.78511 14.7791 8.1915 15.5 8.1915C16.2209 8.1915 16.7016 8.66639 16.7016 9.37872V16.502Z" fill="#EEC824"/>
</g>
<defs>
<clipPath id="clip0">
<rect width="31" height="26" fill="white"/>
</clipPath>
</defs>
</svg>
